<svg class="logo" xmlns="http://www.w3.org/2000/svg" xmlnsXlink="http://www.w3.org/1999/xlink"  viewBox="-10 -10  50 50" >
    <defs>
        <radialGradient id="radial-gradient" cx="0" cy="32" r="1" gradientTransform="matrix(10.28936, 0, 0, -10.28936, 29.34699, 333.88679)" gradientUnits="userSpaceOnUse">
            <stop offset="0" stop-color="#ffeaff" stop-opacity="0.6" />
            <stop offset="0.68" stop-color="#a087c9" />
            <stop offset="1" stop-color="#10002f" />
        </radialGradient>
        <radialGradient id="radial-gradient-2" gradientTransform="matrix(25.17433, 0, 0, -25.17433, 23.62256, 814.59417)" xlinkHref="#radial-gradient" />
        <linearGradient id="linear-gradient" x1="-0.00069" y1="31.9997" x2="0.99994" y2="31.9997" gradientTransform="matrix(4.11619, -25.39442, -25.39442, -4.11619, 825.65922, 162.29235)" gradientUnits="userSpaceOnUse">
            <stop offset="0" stop-color="#81ffff" stop-opacity="0.6" />
            <stop offset="0.62" stop-color="#fff" stop-opacity="0" />
            <stop offset="1" stop-color="#fff" stop-opacity="0" />
        </linearGradient>
        <linearGradient id="linear-gradient-2" y1="31.99919" x2="1" y2="31.99919" gradientTransform="matrix(-10.6415, 9.76389, 9.76389, 10.6415, -288.27299, -331.37989)" gradientUnits="userSpaceOnUse">
            <stop offset="0" stop-color="#fff" stop-opacity="0.6" />
            <stop offset="0.29" stop-color="#fff" stop-opacity="0.6" />
            <stop offset="0.78" stop-color="#fff" stop-opacity="0" />
            <stop offset="1" stop-color="#fff" stop-opacity="0" />
        </linearGradient>
        <linearGradient id="linear-gradient-3" y1="32.00192" y2="32.00192" gradientTransform="matrix(-1.75517, 2.85237, 2.85237, 1.75517, -64.37249, -50.36087)" xlinkHref="#linear-gradient-2" />
        <linearGradient id="linear-gradient-4" x1="-0.00042" y1="31.99971" x2="1.00024" y2="31.99971" gradientTransform="matrix(24.4556, 0, 0, -24.4556, 2.86504, 806.45685)" gradientUnits="userSpaceOnUse">
            <stop offset="0" stop-color="#0002e9" />
            <stop offset="1" stop-color="#ff00c7" />
        </linearGradient>
        <linearGradient id="linear-gradient-5" x1="-0.00079" y1="31.99945" x2="0.99864" y2="31.99945" gradientTransform="matrix(13.08365, 0, 0, -13.08365, 2.86504, 442.55453)" gradientUnits="userSpaceOnUse">
            <stop offset="0" stop-color="#000292" stop-opacity="0.7" />
            <stop offset="1" stop-color="#7d00c7" stop-opacity="0.7" />
        </linearGradient>
        <linearGradient id="linear-gradient-6" y1="32.00052" y2="32.00052" gradientTransform="matrix(-13.31115, 12.5798, 12.5798, 13.31115, -374.07518, -407.11141)" xlinkHref="#linear-gradient-2" />
        <linearGradient id="linear-gradient-7" y1="32.00031" x2="1" y2="32.00031" gradientTransform="matrix(24.42291, 0, 0, -24.42291, 2.88145, 800.43633)" gradientUnits="userSpaceOnUse">
            <stop offset="0" stop-color="#000292" />
            <stop offset="1" stop-color="#be00c7" />
        </linearGradient>
        <linearGradient id="linear-gradient-8" y1="31.98859" y2="31.98859" gradientTransform="matrix(0.73123, 0, 0, -0.73123, 18.42733, 51.2372)" xlinkHref="#linear-gradient-2" />
        <linearGradient id="linear-gradient-9" y1="31.99805" y2="31.99805" gradientTransform="matrix(1.59065, 0, 0, -1.59065, 10.45274, 77.1264)" xlinkHref="#linear-gradient-2" />
        <linearGradient id="linear-gradient-10" y1="31.99762" y2="31.99762" gradientTransform="matrix(1.59065, 0, 0, -1.59065, 19.90041, 74.52427)" xlinkHref="#linear-gradient-2" />
        <linearGradient id="linear-gradient-11" y1="31.98985" y2="31.98985" gradientTransform="matrix(0.73123, 0, 0, -0.73123, 15.46749, 51.58345)" xlinkHref="#linear-gradient-2" />
        <linearGradient id="linear-gradient-12" y1="32.01076" y2="32.01076" gradientTransform="matrix(0.97402, 0, 0, -0.97402, 16.95816, 57.70493)" xlinkHref="#linear-gradient-2" />
        <linearGradient id="linear-gradient-13" x1="0.00066" y1="32.01525" x2="1.00066" y2="32.01525" gradientTransform="matrix(0.97402, 0, 0, -0.97402, 13.59936, 58.03161)" xlinkHref="#linear-gradient-2" />
    </defs>
    <title>osmosis</title>
    <g id="Bottle">
        <g id="whiteBuble1">
            <path d="M19.10791,12.08633A2.07194,2.07194,0,1,0,17.036,10.01439,2.07182,2.07182,0,0,0,19.10791,12.08633Z" transform="translate(-1.03597)" style="fill:#fff" />
        </g>
        <g id="whiteBuble2">
            <path d="M22.49209,13.62878a.87482.87482,0,1,0-.87482-.87482A.87473.87473,0,0,0,22.49209,13.62878Z" transform="translate(-1.03597)" style="fill:#fff" />
        </g>
        <path d="M30.41151,5.89353c-.3223-1.22015-1.35827-2.44029-3.223-3.79857A7.98122,7.98122,0,0,0,22.83741.39137a3.57457,3.57457,0,0,0-.71367.06906,2.08892,2.08892,0,0,0-1.40432,1.15108,3.00508,3.00508,0,0,0-.23021,2.32518,5.79205,5.79205,0,0,0,.34532.62158,8.70537,8.70537,0,0,1-2.00287.96691,13.633,13.633,0,0,1,7.482,6.14676l.023-.27626a10.64673,10.64673,0,0,1,.62158-2.53237,3.505,3.505,0,0,0,.96691.13813,2.48146,2.48146,0,0,0,2.04892-.96691A2.50719,2.50719,0,0,0,30.41151,5.89353Z" transform="translate(-1.03597)" style="fill:#5e12a0" />
        <path d="M27.0964,8.19568c2.095.57554,2.94677-1.036,2.67051-2.118-.29928-1.082-1.26619-2.187-2.96979-3.43022a6.38983,6.38983,0,0,0-4.53525-1.51942c-1.105.23021-1.42734,1.91079-1.15108,2.55539a5.26078,5.26078,0,0,0,.71367,1.036c-.43741.29928-.8518.5295-1.19712.7367a13.61252,13.61252,0,0,1,5.341,4.259,11.46419,11.46419,0,0,1,.59856-1.65756A2.579,2.579,0,0,1,27.0964,8.19568Z" transform="translate(-1.03597)" style="fill:url(#radial-gradient)" />
        <path d="M15.10216,30.75684A12.86907,12.86907,0,1,0,2.23309,17.88777,12.869,12.869,0,0,0,15.10216,30.75684Z" transform="translate(-1.03597)" style="fill:url(#radial-gradient-2)" />
        <path d="M28.70791,5.0187a8.56587,8.56587,0,0,0-4.99568-2.71654c-1.38129-.3223-1.01295-1.105.66763-.94389a4.20719,4.20719,0,0,0-2.118-.23021c-1.105.23021-1.42734,1.91079-1.15108,2.55539a5.26078,5.26078,0,0,0,.71367,1.036,17.54,17.54,0,0,1-1.58849.94389c.2072.09209.46043.20719.75971.36834a12.13915,12.13915,0,0,1,1.63454,1.105c-1.28921-1.105-1.01295-1.61151.75971-2.85468a2.59367,2.59367,0,0,1,2.50935.13813,9.399,9.399,0,0,1,2.04892,1.7036l-1.059,2.0259.20719.06907a2.51559,2.51559,0,0,0,1.61151-.023C29.19137,7.8964,30.45755,6.88345,28.70791,5.0187Z" transform="translate(-1.03597)" style="fill:#a98698;fill-opacity:0.6000000238418579" />
        <path d="M23.68921,3.40719a10.69627,10.69627,0,0,1,1.79568.98993,12.7667,12.7667,0,0,1,2.118,1.72662A12.14072,12.14072,0,0,0,25.94532,9.646c.16116.23022.34533.46044.50648.69065a18.68666,18.68666,0,0,1,.80575-2.27914,1.4153,1.4153,0,0,0,.32231.023,1.32031,1.32031,0,0,0,.85179-.25324A.93865.93865,0,0,0,28.8,6.97554c0-.43741-.34532-.98993-1.059-1.65755a16.89488,16.89488,0,0,0-1.88777-1.49641c-1.97986-1.31223-3.36115-1.68057-3.98274-1.059a1.16153,1.16153,0,0,0-.23021,1.28921c-.73669.48345-1.35828.82878-1.77266,1.059.27625.09209.52949.2072.80575.3223A20.70632,20.70632,0,0,0,23.68921,3.40719Zm4.35108,3.29209a.61846.61846,0,0,1,.09208.29928.38618.38618,0,0,1-.1151.3223.81889.81889,0,0,1-.43741.11511A5.7328,5.7328,0,0,1,28.04029,6.69928ZM22.354,3.26906A.69507.69507,0,0,1,22.90647,3.2c-.23021.18417-.46043.34532-.69064.50647A.45.45,0,0,1,22.354,3.26906Z" transform="translate(-1.03597)" style="fill:#5e12a0" />
        <path d="M15.10216,4.259A13.62878,13.62878,0,1,0,28.73094,17.88777,13.62738,13.62738,0,0,0,15.10216,4.259Zm0,26.49785A12.86907,12.86907,0,1,1,27.97122,17.88777,12.861,12.861,0,0,1,15.10216,30.75684Z" transform="translate(-1.03597)" style="fill:#5e12a0" />
        <path d="M15.10216,30.75684A12.86907,12.86907,0,1,0,2.23309,17.88777,12.869,12.869,0,0,0,15.10216,30.75684Z" transform="translate(-1.03597)" style="fill:url(#linear-gradient)" />
        <path d="M15.01007,29.19137a12.861,12.861,0,0,1-6.354-22.423A12.85928,12.85928,0,1,0,23.505,27.6259,12.90721,12.90721,0,0,1,15.01007,29.19137Z" transform="translate(-1.03597)" style="fill:#a98698;fill-opacity:0.6000000238418579" />
        <path d="M17.15108,5.20288A12.84161,12.84161,0,0,0,8.17266,7.0446l-.09208.09209a16.92213,16.92213,0,0,1,2.44028-1.12806A12.11849,12.11849,0,0,0,5.64029,10.636c1.45036-2.80863,5.70935-4.78849,9.04748-4.92662s5.52518.8518,8.19568,2.99281c2.67051,2.164,4.282,6.58417,4.12087,10.08345a13.95166,13.95166,0,0,1-1.97986,6.33094,16.76931,16.76931,0,0,0,2.50935-4.0518,8.89467,8.89467,0,0,0,.23022-1.12806A12.80907,12.80907,0,0,0,17.15108,5.20288Z" transform="translate(-1.03597)" style="fill:url(#linear-gradient-2)" />
        <path d="M25.623,8.35683h-.046a.27164.27164,0,0,1-.2072-.3223,5.295,5.295,0,0,1,1.12806-2.118.261.261,0,0,1,.39137.34532,4.97966,4.97966,0,0,0-1.01295,1.88777A.24675.24675,0,0,1,25.623,8.35683Z" transform="translate(-1.03597)" style="fill:url(#linear-gradient-3)" />
        <path d="M22.83741.39137A7.8547,7.8547,0,0,1,27.18849,2.095c1.86475,1.35828,2.90072,2.5554,3.223,3.79857a2.47834,2.47834,0,0,1-2.48633,3.08489,3.7653,3.7653,0,0,1-.96691-.13813,11.03072,11.03072,0,0,0-.48345,1.56547A13.61663,13.61663,0,1,1,15.10216,4.259a13.40487,13.40487,0,0,1,4.71942.8518c.27626-.13813.62159-.3223,1.013-.55252a2.79919,2.79919,0,0,1-.34532-.62158,2.9975,2.9975,0,0,1,.23021-2.32518A2.16654,2.16654,0,0,1,22.12374.46043,3.41261,3.41261,0,0,1,22.83741.39137Zm0-.39137a3.09042,3.09042,0,0,0-.80576.09209,2.56293,2.56293,0,0,0-1.68057,1.35827,3.45446,3.45446,0,0,0-.25324,2.6705c.046.09209.09209.2072.16115.32231a4.87152,4.87152,0,0,1-.48345.25323,14.18329,14.18329,0,0,0-4.6964-.80575A13.84142,13.84142,0,0,0,9.623,4.99568a14.15908,14.15908,0,0,0-7.482,7.482,14.02225,14.02225,0,0,0,0,10.91223,14.159,14.159,0,0,0,7.482,7.482,14.02225,14.02225,0,0,0,10.91223,0,14.15908,14.15908,0,0,0,7.482-7.482,14.012,14.012,0,0,0-1.105-13.0072,8.7693,8.7693,0,0,1,.29928-1.036,3.74719,3.74719,0,0,0,.71367.06907,2.88351,2.88351,0,0,0,2.8777-3.59137C30.43453,4.48921,29.37554,3.223,27.4187,1.81871A8.0423,8.0423,0,0,0,22.83741,0Z" transform="translate(-1.03597)" style="fill:#fff" />
    </g>
    <g id="liquid">
        <path d="M27.32662,17.77266a12.236,12.236,0,0,1-24.47194,0Z" transform="translate(-1.03597)" style="fill:url(#linear-gradient-4)" />
        <path d="M4.58129,17.77266H2.85468A12.23222,12.23222,0,0,0,15.07914,29.99712c.29928,0,.57554,0,.85179-.023A12.258,12.258,0,0,1,4.58129,17.77266Z" transform="translate(-1.03597)" style="fill:url(#linear-gradient-5)" />
        <path d="M26.35971,17.77266a12.22874,12.22874,0,0,1-11.741,12.22446h.48346A12.23222,12.23222,0,0,0,27.32662,17.77266Z" transform="translate(-1.03597)" style="fill:url(#linear-gradient-6)" />
        <path id="pathLiquid" transform="translate(-1.3, -1.1) scale(1.02)" style="fill:url(#linear-gradient-7)">
            <animate id="animation-to-check" attributename="d" repeatcount="indefinite" 
            d="M 27 19 C 27 17 25 15 21 15 C 17 15 13 17 9 17 C 5 17 3 17 3 19 C 3 21 5 23 9 23 C 13 23 17 21 21 21 C 25 21 27 21 27 19 Z;" dur="2s" values="M 27 19 C 27 17 25 15 21 15 C 17 15 13 17 9 17 C 5 17 3 17 3 19 C 3 21 5 23 9 23 C 13 23 17 21 21 21 C 25 21 27 21 27 19 Z;M 27 19 C 27 17 24 17 21 16 C 18 15 12 15 9 16 C 6 17 3 17 3 19 C 3 21 6 21 9 22 C 12 23 18 23 21 22 C 24 21 27 21 27 19 Z;M 27 19 C 27 17 25 17 21 17 C 16 17 14 15 9 15 C 5 15 3 17 3 19 C 3 21 5 21 9 21 C 14 21 16 23 21 23 C 25 23 27 21 27 19 Z;M 27 19 C 27 17 24 17 21 16 C 18 15 12 15 9 16 C 6 17 3 17 3 19 C 3 21 6 21 9 22 C 12 23 18 23 21 22 C 24 21 27 21 27 19 Z;M 27 19 C 27 17 25 15 21 15 C 17 15 13 17 9 17 C 5 17 3 17 3 19 C 3 21 5 23 9 23 C 13 23 17 21 21 21 C 25 21 27 21 27 19 Z;" />
        </path>
    </g>

    <g id="buble4">
        <path d="M18.92374,28.31655a.48346.48346,0,1,0-.48345-.48346A.4834.4834,0,0,0,18.92374,28.31655Z" transform="translate(-1.03597)" style="fill:#fff;fill-opacity:0.20000000298023224" />
        <path d="M18.64748,28.13237a.50072.50072,0,0,1,0-.69064c.023-.023.06907-.04605.09209-.06907a.41289.41289,0,0,0-.16115.11511.50071.50071,0,0,0,0,.69065.485.485,0,0,0,.59856.06906A.50092.50092,0,0,1,18.64748,28.13237Z" transform="translate(-1.03597)" style="fill:url(#linear-gradient-8)" />
        <path d="M19.08489,27.67194a.09209.09209,0,1,0-.09208-.09208A.09206.09206,0,0,0,19.08489,27.67194Z" transform="translate(-1.03597)" style="fill:#fff;fill-opacity:0.30000001192092896" />
    </g>
    <g id="buble5">
        <path d="M11.51079,27.25755a1.059,1.059,0,1,0-1.059-1.059A1.05884,1.05884,0,0,0,11.51079,27.25755Z" transform="translate(-1.03597)" style="fill:#fff;fill-opacity:0.20000000298023224" />
        <path d="M10.91223,26.86619a1.056,1.056,0,0,1,0-1.49641.827.827,0,0,1,.23022-.16115,1.23691,1.23691,0,0,0-.36835.23022,1.05812,1.05812,0,0,0,1.28921,1.65755A1.02563,1.02563,0,0,1,10.91223,26.86619Z" transform="translate(-1.03597)" style="fill:url(#linear-gradient-9)" />
        <path d="M11.87914,25.87626a.23022.23022,0,1,0-.23022-.23022A.2303.2303,0,0,0,11.87914,25.87626Z" transform="translate(-1.03597)" style="fill:#fff;fill-opacity:0.30000001192092896" />
    </g>
    <g id="buble6">
        <path d="M20.97266,24.65612a1.059,1.059,0,1,0-1.059-1.059A1.05885,1.05885,0,0,0,20.97266,24.65612Z" transform="translate(-1.03597)" style="fill:#fff;fill-opacity:0.20000000298023224" />
        <path d="M20.35108,24.26475a1.056,1.056,0,0,1,0-1.4964.82679.82679,0,0,1,.23022-.16116,1.23691,1.23691,0,0,0-.36835.23022A1.05812,1.05812,0,0,0,21.50216,24.495,1.03318,1.03318,0,0,1,20.35108,24.26475Z" transform="translate(-1.03597)" style="fill:url(#linear-gradient-10)" />
        <path d="M21.341,23.27482a.23022.23022,0,1,0-.23022-.23022A.2303.2303,0,0,0,21.341,23.27482Z" transform="translate(-1.03597)" style="fill:#fff;fill-opacity:0.30000001192092896" />
    </g>
    <g id="buble3">
        <path d="M15.954,28.66187a.48345.48345,0,1,0-.48346-.48345A.48339.48339,0,0,0,15.954,28.66187Z" transform="translate(-1.03597)" style="fill:#fff;fill-opacity:0.20000000298023224" />
        <path d="M15.6777,28.4777a.50071.50071,0,0,1,0-.69065c.023-.023.06906-.046.09208-.06906a.413.413,0,0,0-.16115.1151.50073.50073,0,0,0,0,.69065.485.485,0,0,0,.59856.06907A.50092.50092,0,0,1,15.6777,28.4777Z" transform="translate(-1.03597)" style="fill:url(#linear-gradient-11)" />
        <path d="M16.11511,28.01727a.09209.09209,0,1,0-.09209-.09209A.09206.09206,0,0,0,16.11511,28.01727Z" transform="translate(-1.03597)" style="fill:#fff;fill-opacity:0.30000001192092896" />
    </g>
    <g id="buble2">
        <path d="M17.61151,27.16547a.64461.64461,0,1,0-.6446-.64461A.64473.64473,0,0,0,17.61151,27.16547Z" transform="translate(-1.03597)" style="fill:#fff;fill-opacity:0.20000000298023224" />
        <path d="M17.24317,26.93525a.65305.65305,0,0,1,0-.92086c.046-.046.09208-.06907.13812-.11511a.4777.4777,0,0,0-.23021.13813.65305.65305,0,0,0,0,.92086.66423.66423,0,0,0,.78273.11511A.64313.64313,0,0,1,17.24317,26.93525Z" transform="translate(-1.03597)" style="fill:url(#linear-gradient-12)" />
        <path d="M17.84173,26.33669a.13813.13813,0,1,0-.13813-.13813A.13824.13824,0,0,0,17.84173,26.33669Z" transform="translate(-1.03597)" style="fill:#fff;fill-opacity:0.30000001192092896" />
    </g>
    <g id="buble1">
        <path d="M14.25036,27.48777a.64461.64461,0,1,0-.64461-.6446A.64472.64472,0,0,0,14.25036,27.48777Z" transform="translate(-1.03597)" style="fill:#fff;fill-opacity:0.20000000298023224" />
        <path d="M13.882,27.25755a.65307.65307,0,0,1,0-.92086c.04605-.046.09209-.06906.13813-.11511a.4777.4777,0,0,0-.23021.13813.65307.65307,0,0,0,0,.92087.66425.66425,0,0,0,.78273.1151A.64315.64315,0,0,1,13.882,27.25755Z" transform="translate(-1.03597)" style="fill:url(#linear-gradient-13)" />
        <path d="M14.48058,26.659a.13813.13813,0,1,0-.13813-.13813A.13823.13823,0,0,0,14.48058,26.659Z" transform="translate(-1.03597)" style="fill:#fff;fill-opacity:0.30000001192092896" />
    </g>
</svg>