<?xml version="1.0" encoding="utf-8"?>
<!-- Generator: Adobe Illustrator 25.0.0, SVG Export Plug-In . SVG Version: 6.00 Build 0)  -->
<svg version="1.1" id="图层_1" xmlns="http://www.w3.org/2000/svg" xmlns:xlink="http://www.w3.org/1999/xlink" x="0px"
	y="0px" viewBox="0 0 1014 1024" style="enable-background:new 0 0 1014 1024;" xml:space="preserve">
	<g id="图层_2_1_">
	</g>
	<g id="图层_4">
		<g>
			<circle style="fill:#390176;" cx="507" cy="512" r="409" />

			<radialGradient id="SVGID_1_" cx="507" cy="514" r="393.28" gradientTransform="matrix(1 0 0 -1 0 1026)"
				gradientUnits="userSpaceOnUse">
				<stop offset="0" style="stop-color:#56C1FC" />
				<stop offset="1" style="stop-color:#3A8CFC" />
			</radialGradient>
			<circle style="fill:url(#SVGID_1_);" cx="507" cy="512" r="393.28" />

			<radialGradient id="SVGID_2_" cx="507" cy="317.36" r="310.9152" gradientTransform="matrix(1 0 0 -1 0 1026)"
				gradientUnits="userSpaceOnUse">
				<stop offset="0" style="stop-color:#5577E5" />
				<stop offset="1" style="stop-color:#3F3EE5" />
			</radialGradient>
			<path style="fill:url(#SVGID_2_);"
				d="M113.72,512c0,217.2,176.08,393.28,393.28,393.28S900.28,729.2,900.28,512H113.72z" />
			<path style="opacity:0.33;fill:#231F1F;enable-background:new    ;" d="M896.51,457.57c-1.78,13.4-4.24,26.89-7.34,40.38
			c-12.46-28.21-40.66-47.92-73.49-47.92c-44.35,0-80.31,35.96-80.31,80.31s35.96,80.31,80.31,80.31c13.43,0,26.08-3.31,37.2-9.14
			c-47.7,147.24-196.56,258.23-346.17,258.23c-149.85,0-296.48-110.99-346.48-259.09c11.5,6.35,24.71,9.97,38.77,9.97
			c44.35,0,80.31-35.96,80.31-80.31S243.35,450,199,450c-33.55,0-62.28,20.58-74.29,49.79c-3.15-13.42-5.66-26.84-7.51-40.17
			c-2.28,17.13-3.48,34.61-3.48,52.37c0,217.2,176.08,393.28,393.28,393.28s393.28-176.08,393.28-393.28
			C900.28,493.53,898.97,475.36,896.51,457.57z" />
			<path style="fill:#390176;" d="M96.34,561.69c-23.28,0-42.23-18.94-42.23-42.23c0-23.28,18.94-42.23,42.23-42.23h821.33
			c23.28,0,42.23,18.94,42.23,42.23c0,23.28-18.94,42.23-42.23,42.23H96.34z" />
			<path style="fill:#455399;" d="M923.2,551.75H90.8c-14.78,0-26.76-11.98-26.76-26.76v-11.07c0-14.78,11.98-26.76,26.76-26.76
			h832.4c14.78,0,26.76,11.98,26.76,26.76v11.07C949.95,539.77,937.97,551.75,923.2,551.75z" />
			<path style="fill:#FFFFFF;" d="M64.09,518.63h885.82c-0.44-17.45-14.69-31.46-32.25-31.46H96.34
			C78.78,487.17,64.53,501.18,64.09,518.63z" />
			<g>
				<circle style="opacity:0.33;fill:#231F1F;enable-background:new    ;" cx="503.87" cy="543" r="221.88" />
				<circle style="fill:#390176;" cx="507" cy="512" r="221.88" />
				<g>
					<circle style="fill:#50CCC9;" cx="507" cy="512" r="214.7" />
				</g>
				<path style="opacity:0.33;fill:#231F1F;enable-background:new    ;" d="M292.3,512c0,118.57,96.12,214.7,214.7,214.7
				S721.7,630.57,721.7,512c0-1.65-0.03-3.29-0.06-4.93H292.36C292.33,508.71,292.3,510.35,292.3,512z" />
				<circle style="fill:#390176;" cx="507" cy="512" r="187.04" />
				<circle style="fill:#4A6899;" cx="507" cy="512" r="181.23" />
				<g>
					<path style="opacity:0.33;fill:#231F1F;enable-background:new    ;" d="M507,338.49c98.8,0,179.07,79.07,181.13,177.37
					c0.03-1.29,0.1-2.56,0.1-3.86c0-100.09-81.14-181.23-181.23-181.23S325.77,411.91,325.77,512c0,1.29,0.07,2.57,0.1,3.86
					C327.93,417.55,408.2,338.49,507,338.49z" />
				</g>
				<circle style="fill:#390176;" cx="507" cy="512" r="142.38" />
				<g>

					<linearGradient id="SVGID_3_" gradientUnits="userSpaceOnUse" x1="582.8438" y1="624.4054"
						x2="429.6543" y2="401.4082" gradientTransform="matrix(1 0 0 -1 0 1026)">
						<stop offset="0" style="stop-color:#30A4E4" />
						<stop offset="1" style="stop-color:#9DD0E4" />
					</linearGradient>
					<circle style="fill:url(#SVGID_3_);" cx="507" cy="512" r="135.26" />
				</g>
				<g>

					<linearGradient id="SVGID_4_" gradientUnits="userSpaceOnUse" x1="576.8561" y1="615.6892"
						x2="435.751" y2="410.2832" gradientTransform="matrix(1 0 0 -1 0 1026)">
						<stop offset="0" style="stop-color:#85D0E4" />
						<stop offset="1" style="stop-color:#BBD0E4" />
					</linearGradient>
					<circle style="fill:url(#SVGID_4_);" cx="507" cy="512" r="124.59" />
				</g>
				<g style="opacity:0.4;">

					<linearGradient id="SVGID_5_" gradientUnits="userSpaceOnUse" x1="-9486.1006" y1="2014.1824"
						x2="-9584.8711" y2="1870.4033" gradientTransform="matrix(-1 0 0 1 -9028 -1431)">
						<stop offset="0" style="stop-color:#87D0E5" />
						<stop offset="0.3049" style="stop-color:#6ECAE1" />
						<stop offset="0.9516" style="stop-color:#2DBBD6" />
						<stop offset="0.9988" style="stop-color:#28BAD5" />
					</linearGradient>
					<circle style="fill:url(#SVGID_5_);" cx="507" cy="512" r="87.21" />
				</g>
				<g>

					<linearGradient id="SVGID_6_" gradientUnits="userSpaceOnUse" x1="-8325.0039" y1="-1366.4445"
						x2="-8347.9482" y2="-1429.8793"
						gradientTransform="matrix(-0.7901 -0.6129 -0.6129 0.7901 -6881.2744 -3556.1711)">
						<stop offset="1.209562e-03" style="stop-color:#FFFFFF;stop-opacity:0" />
						<stop offset="1" style="stop-color:#FFFFFF" />
					</linearGradient>
					<circle style="fill:url(#SVGID_6_);" cx="562.4" cy="448.51" r="32.61" />
				</g>
				<g style="opacity:0.6;">

					<linearGradient id="SVGID_7_" gradientUnits="userSpaceOnUse" x1="207.0249" y1="-515.3518"
						x2="194.92" y2="-548.8184"
						gradientTransform="matrix(0.9921 -0.1253 -0.1253 -0.9921 172.389 82.5769)">
						<stop offset="1.209562e-03" style="stop-color:#FFFFFF;stop-opacity:0" />
						<stop offset="1" style="stop-color:#FFFFFF" />
					</linearGradient>
					<circle style="fill:url(#SVGID_7_);" cx="438.45" cy="585.25" r="17.21" />
				</g>
				<g style="opacity:0.6;">
					<g>
						<path style="fill:#235387;" d="M507,387.41c72.91,0,132.32,57.7,135.13,129.92c0.07-1.77,0.13-3.55,0.13-5.34
						c0-74.7-60.56-135.26-135.26-135.26S371.74,437.3,371.74,512c0,1.79,0.07,3.57,0.13,5.34
						C374.68,445.11,434.09,387.41,507,387.41z" />
					</g>
				</g>
			</g>
			<circle style="fill:#390176;" cx="199" cy="519.46" r="80.31" />
			<circle style="fill:#FFFFFF;" cx="199" cy="519.46" r="69.4" />
			<g>
				<path style="opacity:0.33;fill:#231F1F;enable-background:new    ;" d="M199,570.14c-35.15,0-64.18-26.14-68.75-60.04
				c-0.41,3.06-0.65,6.18-0.65,9.36c0,38.33,31.07,69.4,69.4,69.4s69.4-31.07,69.4-69.4c0-3.18-0.23-6.29-0.65-9.36
				C263.18,544,234.15,570.14,199,570.14z" />
			</g>
			<g>
				<circle style="fill:#390176;" cx="816.65" cy="519.46" r="80.31" />
				<circle style="fill:#FFFFFF;" cx="816.65" cy="519.46" r="69.4" />
				<g>
					<path style="opacity:0.33;fill:#231F1F;enable-background:new    ;" d="M816.65,570.14c-35.15,0-64.18-26.14-68.75-60.04
					c-0.41,3.06-0.65,6.18-0.65,9.36c0,38.33,31.07,69.4,69.4,69.4s69.4-31.07,69.4-69.4c0-3.18-0.23-6.29-0.65-9.36
					C880.83,544,851.8,570.14,816.65,570.14z" />
				</g>
			</g>
		</g>
		<g>
			<g>
				<path style="opacity:0.33;fill:#231F1F;enable-background:new    ;" d="M280.87,407.26c-9.61-1.28-27.59-7.51-40.04-34.73
				c-3.72-8.13-8.38-9.64-11.56-10.06c-7.87-1.05-18.75,3.54-29.27,7.97c-11.97,5.05-23.27,9.81-33.55,8.44
				c-5.94-0.79-10.8-3.57-14.44-8.25c-6.16-7.93-5.98-17.4,0.5-26.68c6.98-9.99,20.88-19.28,38.15-25.49
				c18.33-6.59,38.16-8.92,55.85-6.56c37.02,4.95,61.07,29.14,67.72,68.12c1.29,7.55-1.46,14.93-7.54,20.23
				C300.09,406.02,290.68,408.57,280.87,407.26L280.87,407.26z" />
				<path style="fill:#390176;"
					d="M281.3,397.98c-9.61-1.28-27.59-7.51-40.04-34.73c-3.72-8.13-8.38-9.64-11.56-10.06
				c-7.87-1.05-18.75,3.54-29.27,7.97c-11.97,5.05-23.27,9.81-33.55,8.44c-5.94-0.79-10.8-3.57-14.44-8.25
				c-6.16-7.93-5.98-17.4,0.5-26.68c6.98-9.99,20.88-19.28,38.15-25.49c18.33-6.59,38.16-8.92,55.85-6.56
				c37.02,4.95,61.07,29.14,67.72,68.12c1.29,7.55-1.46,14.93-7.54,20.23C300.52,396.74,291.11,399.29,281.3,397.98L281.3,397.98z" />
				<path style="fill:#7C9BD1;" d="M246.22,361.65c-17.79-38.89-69.71,22.49-89.38-2.83c-11.11-14.3,5.24-32.38,30.9-43.14
				c42.17-17.67,109.5-15.57,121.64,55.59c0.13,0.79,0.21,1.57,0.24,2.34C310.45,395.92,267.72,408.67,246.22,361.65z" />
				<path style="opacity:0.33;fill:#231F1F;enable-background:new    ;" d="M246.22,361.65c-17.79-38.89-69.71,22.49-89.38-2.83
				c-11.11-14.3,5.24-32.38,30.9-43.14c-6.15,6.1-17.27,19.7,0.06,24.43c25.23,6.87,53.99-15.49,66.86,8.93
				c14.02,26.61,20.35,31.61,30.12,34.26c6.3,1.71,19.37-0.73,24.83-9.69C310.45,395.92,267.72,408.67,246.22,361.65z" />
			</g>
			<g>
				<path style="opacity:0.33;fill:#231F1F;enable-background:new    ;" d="M733.13,407.26c9.61-1.28,27.59-7.51,40.04-34.73
				c3.72-8.13,8.38-9.64,11.56-10.06c7.87-1.05,18.75,3.54,29.27,7.97c11.97,5.05,23.27,9.81,33.55,8.44
				c5.94-0.79,10.8-3.57,14.44-8.25c6.16-7.93,5.98-17.4-0.5-26.68c-6.98-9.99-20.88-19.28-38.15-25.49
				c-18.33-6.59-38.16-8.92-55.85-6.56c-37.02,4.95-61.07,29.14-67.72,68.12c-1.29,7.55,1.46,14.93,7.54,20.23
				C713.91,406.02,723.32,408.57,733.13,407.26L733.13,407.26z" />
				<path style="fill:#390176;" d="M732.7,397.98c9.61-1.28,27.59-7.51,40.04-34.73c3.72-8.13,8.38-9.64,11.56-10.06
				c7.87-1.05,18.75,3.54,29.27,7.97c11.97,5.05,23.27,9.81,33.55,8.44c5.94-0.79,10.8-3.57,14.44-8.25
				c6.16-7.93,5.98-17.4-0.5-26.68c-6.98-9.99-20.88-19.28-38.15-25.49c-18.33-6.59-38.16-8.92-55.85-6.56
				c-37.02,4.95-61.07,29.14-67.72,68.12c-1.29,7.55,1.46,14.93,7.54,20.23C713.48,396.74,722.89,399.29,732.7,397.98L732.7,397.98z
				" />
				<path style="fill:#7C9BD1;"
					d="M767.78,361.65c17.79-38.89,69.71,22.49,89.38-2.83c11.11-14.3-5.24-32.38-30.9-43.14
				c-42.17-17.67-109.5-15.57-121.64,55.59c-0.13,0.79-0.21,1.57-0.24,2.34C703.55,395.92,746.28,408.67,767.78,361.65z" />
				<path style="opacity:0.33;fill:#231F1F;enable-background:new    ;"
					d="M767.78,361.65c17.79-38.89,69.71,22.49,89.38-2.83
				c11.11-14.3-5.24-32.38-30.9-43.14c6.15,6.1,17.27,19.7-0.06,24.43c-25.23,6.87-53.99-15.49-66.86,8.93
				c-14.02,26.61-20.35,31.61-30.12,34.26c-6.3,1.71-19.37-0.73-24.83-9.69C703.55,395.92,746.28,408.67,767.78,361.65z" />
			</g>
		</g>
		<g>
			<g>

				<linearGradient id="SVGID_8_" gradientUnits="userSpaceOnUse" x1="781.0396" y1="788.7607" x2="589.6924"
					y2="861.7489" gradientTransform="matrix(1 0 0 -1 0 1026)">
					<stop offset="1.209562e-03" style="stop-color:#FFFFFF;stop-opacity:0" />
					<stop offset="1" style="stop-color:#FFFFFF" />
				</linearGradient>
				<ellipse style="fill:url(#SVGID_8_);" cx="591.21" cy="164.83" rx="20.51" ry="17.85" />
			</g>
			<g>

				<linearGradient id="SVGID_9_" gradientUnits="userSpaceOnUse" x1="777.3638" y1="778.2114" x2="586.0166"
					y2="851.1993" gradientTransform="matrix(1 0 0 -1 0 1026)">
					<stop offset="1.209562e-03" style="stop-color:#FFFFFF;stop-opacity:0" />
					<stop offset="1" style="stop-color:#FFFFFF" />
				</linearGradient>
				<path style="fill:url(#SVGID_9_);" d="M746.52,267.42c-8.37,2.04-17.38-1.59-20.89-8.74c-24.57-50.09-89.51-65.56-90.16-65.71
				c-9.37-2.16-14.99-10.51-12.54-18.67c2.46-8.16,12-13.06,21.39-10.95c3.34,0.75,82.17,19.15,113.65,83.32
				c3.81,7.77-0.33,16.77-9.27,20.08C747.99,267.02,747.26,267.24,746.52,267.42z" />
			</g>
		</g>
	</g>
</svg>