<svg xmlns="http://www.w3.org/2000/svg" xmlns:xlink="http://www.w3.org/1999/xlink" viewBox="0 0 43 19.31"><defs><style>.cls-1{fill:url(#linear-gradient);}</style><linearGradient id="linear-gradient" y1="9.66" x2="43" y2="9.66" gradientUnits="userSpaceOnUse"><stop offset="0" stop-color="#52eb7d"/><stop offset="0" stop-color="#ff2c00"/><stop offset="1" stop-color="#ff8200"/></linearGradient></defs><title>Asset 6</title><g id="Layer_2" data-name="Layer 2"><g id="Layer_1-2" data-name="Layer 1"><path class="cls-1" d="M43,7.46v4.39a.5.5,0,0,1-.5.5h-26v6a1,1,0,0,1-1.51.86L.49,10.51a1.06,1.06,0,0,1-.35-.35A1,1,0,0,1,.49,8.79L15,.14A.94.94,0,0,1,15.53,0a1,1,0,0,1,1,1V7h26A.5.5,0,0,1,43,7.46Z"/></g></g></svg>