<svg id="Layer_1" data-name="Layer 1" xmlns="http://www.w3.org/2000/svg" xmlns:xlink="http://www.w3.org/1999/xlink" viewBox="0 0 75.45 62.96"><defs><style>.cls-1{fill:none;}.cls-2{clip-path:url(#clip-path);}.cls-3{clip-path:url(#clip-path-2);}.cls-4{fill:#245829;}</style><clipPath id="clip-path" transform="translate(-12.21 -18.34)"><rect id="SVGID" class="cls-1" x="11.33" y="18" width="77.33" height="64"/></clipPath><clipPath id="clip-path-2" transform="translate(-12.21 -18.34)"><rect id="SVGID-2" data-name="SVGID" class="cls-1" x="10.7" y="21.02" width="75" height="63" transform="translate(-18.8 28.18) rotate(-27.49)"/></clipPath></defs><title>clover2</title><g class="cls-2"><g class="cls-3"><g class="cls-3"><path class="cls-4" d="M80.7,67.44a9.32,9.32,0,0,0-2.06-8.75,6.57,6.57,0,0,0,.76-.21,11,11,0,0,0,7.28-5.75,7.92,7.92,0,0,0,.88-4.91,6.38,6.38,0,0,0-2.3-3.58c-2.33-1.89-5.57-2.39-8.48-2.51a32.05,32.05,0,0,0-7.18.53,18.43,18.43,0,0,0,4.1-3.5A17.66,17.66,0,0,0,77.24,33a7.53,7.53,0,0,0-.48-6.45,9.38,9.38,0,0,0-6.07-4.31,7.52,7.52,0,0,0-6.65,2,8,8,0,0,0-6.38-5.82,8.43,8.43,0,0,0-7.44,3.17c-3.63,4.26-3.12,10.25-1.67,15.48a31.32,31.32,0,0,0-5.82-6.65c-2.5-2.11-5.57-3.88-8.91-3.94-3.08,0-6.42,1.39-7.88,4.22a7.06,7.06,0,0,0-.43,5.55,9.45,9.45,0,0,0,2.1,3.35A9.35,9.35,0,0,0,22,42.88a7.33,7.33,0,0,0,0,9.3c2.23,2.9,6.07,4,9.57,4a49.54,49.54,0,0,0,10.9-1.52l.44-.1c-1.64.66-3.28,1.3-4.95,1.9A125,125,0,0,1,22,61c-3.08.66-6.19,1.18-9.27,1.8-.78.16-.71,1.49.11,1.43a79.43,79.43,0,0,0,16.72-3.28q5.07-1.45,10-3.41a29.22,29.22,0,0,0-4.12,3.81c-2.12,2.44-3.67,5.32-3.34,8.64a8,8,0,0,0,4.72,6.77,7.06,7.06,0,0,0,8.06-2.33c.56,3.06,2.45,5.85,5.64,6.67a6.72,6.72,0,0,0,5.11-.72A10.33,10.33,0,0,0,58.88,77c2.54-4.09,2.39-9.12,1.27-13.75a34.36,34.36,0,0,0,4.67,6.07c2.33,2.33,5.5,4.21,8.91,4A8.18,8.18,0,0,0,80.7,67.44ZM50.21,24.49A8.2,8.2,0,0,1,55.71,20c3.53-.67,6.85,2.3,7.06,5.8,0,.58.81,1.18,1.3.61,1.46-1.74,3.35-3.05,5.72-2.82a7.71,7.71,0,0,1,5.48,3.44c2.3,3.58-.07,7.56-2.26,10.53a21.88,21.88,0,0,1-5.68,5.21,36.18,36.18,0,0,0-6.72,2.63c-1.19.61-2.34,1.25-3.46,2a31.25,31.25,0,0,0-2.71,2l0-.14c-.86-2.55-1.93-5-2.76-7.61a55.21,55.21,0,0,1-2-7.13C49,31.25,48.64,27.53,50.21,24.49Zm-5.84,28.2A66.49,66.49,0,0,1,35,54.54c-3.27.39-6.81.38-9.7-1.37-2.61-1.57-4.38-4.74-3.19-7.74a7.33,7.33,0,0,1,3.2-3.49c1.29-.74,2.92-1.29,4.3-.43.79.48,1.78-.61,1.07-1.29-2.24-2.13-4.73-5.11-3.23-8.37,1.11-2.42,4-3.63,6.55-3.53,2.9.11,5.59,1.7,7.75,3.54a33.45,33.45,0,0,1,6.61,7.82,47.49,47.49,0,0,1,2.7,5c.26.56.51,1.11.76,1.67.42,1.11.84,2.23,1.36,3.29l0,0-.59.27A59,59,0,0,1,44.37,52.69ZM58.93,74.4c-1,2.63-3.14,5.44-6.12,5.76a5.84,5.84,0,0,1-5-2A8.67,8.67,0,0,1,46,71.67c.06-.73-1.14-1-1.3-.23a5.58,5.58,0,0,1-7.27,4.09c-2.47-.84-3.87-3.42-4.06-5.9-.23-2.92,1.3-5.54,3.22-7.61a34.27,34.27,0,0,1,8-6c3-1.77,6.14-3.22,9.2-4.84a87.89,87.89,0,0,0,4.47,9,34.21,34.21,0,0,1,1.36,6.14A16.85,16.85,0,0,1,58.93,74.4Zm14.34-2.85c-3.1.26-5.84-1.57-7.87-3.74a43.83,43.83,0,0,1-5.58-7.92A83.41,83.41,0,0,1,55,50s0-.07-.05-.1c.89-.55,1.77-1.11,2.67-1.63l2.31-1.15A45.77,45.77,0,0,1,66,44.59a31,31,0,0,1,8.49-1.48,20.8,20.8,0,0,1,7,.74c.38.16.75.33,1.12.52,1.45.77,3,1.81,3.46,3.52a5.33,5.33,0,0,1-.78,4,11.27,11.27,0,0,1-8.7,5.22,1,1,0,0,0-.56,1.81A7.69,7.69,0,0,1,79,66.5,6.57,6.57,0,0,1,73.27,71.55Z" transform="translate(-12.21 -18.34)"/></g></g></g></svg>