<svg id="Layer_1" data-name="Layer 1" xmlns="http://www.w3.org/2000/svg" xmlns:xlink="http://www.w3.org/1999/xlink" viewBox="0 0 38.04 30.53"><defs><style>.cls-1{fill:none;}.cls-2{clip-path:url(#clip-path);}.cls-3{clip-path:url(#clip-path-2);}.cls-4{fill:#abcd97;}.cls-5{clip-path:url(#clip-path-4);}.cls-6{clip-path:url(#clip-path-7);}.cls-7{clip-path:url(#clip-path-8);}.cls-8{fill:#c1d8b3;}</style><clipPath id="clip-path" transform="translate(-29.4 -35.75)"><rect id="SVGID" class="cls-1" x="36" y="35.67" width="32" height="30.67"/></clipPath><clipPath id="clip-path-2" transform="translate(-29.4 -35.75)"><rect id="SVGID-2" data-name="SVGID" class="cls-1" x="34.17" y="33.14" width="32" height="34" transform="translate(-16.5 25.93) rotate(-25.02)"/></clipPath><clipPath id="clip-path-4" transform="translate(-29.4 -35.75)"><rect id="SVGID-4" data-name="SVGID" class="cls-1" x="29.33" y="39.67" width="33.33" height="21.33"/></clipPath><clipPath id="clip-path-7" transform="translate(-29.4 -35.75)"><rect id="SVGID-7" data-name="SVGID" class="cls-1" x="33.46" y="34.76" width="24.61" height="26.17" transform="translate(-15.94 23.85) rotate(-25.02)"/></clipPath><clipPath id="clip-path-8" transform="translate(-29.4 -35.75)"><rect id="SVGID-8" data-name="SVGID" class="cls-1" x="33.52" y="34.77" width="24.56" height="26.14" transform="translate(-15.94 23.87) rotate(-25.03)"/></clipPath></defs><title>clover3</title><g class="cls-2"><g class="cls-3"><g class="cls-3"><path class="cls-4" d="M42.1,60.07a1.21,1.21,0,0,1,1.45,1.36c-.28,2,.05,4.81,4.07,4.85,6.93.06,4.26-14,4.08-14.88l0,0h0v0c-.9-.13-15.16-2-14.68,4.93C37.28,60.3,40.09,60.47,42.1,60.07Zm9.57-8.63v0l0,0h0v0c.58-.7,9.66-11.86,3.52-15-3.65-1.88-5.27.59-6,2.53a1.1,1.1,0,0,1-1.75.48c-1.57-1.33-4.22-2.64-6.43.84C37.37,46.11,50.82,51.14,51.67,51.44Zm0,.06h0s0,0,0,0h0c.72-.56,12.08-9.4,15.15-3.23,2,3.93-1.06,5.45-3.05,6a.79.79,0,0,0-.39,1.3c1.38,1.53,3.08,4.4-.69,6.68-5.94,3.6-10.74-9.88-11-10.73h0" transform="translate(-29.4 -35.75)"/></g></g></g><g class="cls-5"><g class="cls-3"><g class="cls-3"><g class="cls-6"><g class="cls-7"><path class="cls-8" d="M29.53,41.08h0a.36.36,0,0,1,.55-.06,37,37,0,0,0,16,8.91c3.17.74,4.73,1.17,5.39,1.41-.09-.53-.44-2.49-1.16-5.09-.85-3-1.65-5.66-1.66-5.69a.22.22,0,0,1,.12-.27h0a.22.22,0,0,1,.28.15s.82,2.65,1.66,5.7a50.36,50.36,0,0,1,1.19,5.21c.58.21,3.53,1.3,5.92,2a27.8,27.8,0,0,0,4.3.88.22.22,0,0,1,.2.24.22.22,0,0,1-.25.2,26.47,26.47,0,0,1-4.38-.88c-2.38-.66-5.31-1.73-5.93-2-.6.72-2.23,2.28-3.68,3.66-.87.83-1.61,1.54-2,1.93-1,1-2.14,2.27-2.15,2.29a.23.23,0,0,1-.31,0,.22.22,0,0,1,0-.32s1.15-1.25,2.15-2.29c.38-.39,1.13-1.11,2-1.94,1.29-1.24,2.88-2.76,3.54-3.51l-.84-.08a44,44,0,0,1-20.76-9.29.87.87,0,0,1-.19-1.14" transform="translate(-29.4 -35.75)"/></g></g></g></g></g></svg>