<svg id="Layer_1" data-name="Layer 1" xmlns="http://www.w3.org/2000/svg" xmlns:xlink="http://www.w3.org/1999/xlink" viewBox="0 0 75.58 75.51"><defs><style>.cls-1{fill:none;}.cls-2{clip-path:url(#clip-path);}.cls-3{clip-path:url(#clip-path-2);}.cls-4{fill:#327238;}.cls-5{clip-path:url(#clip-path-4);}.cls-6{clip-path:url(#clip-path-7);}.cls-7{fill:#245829;}.cls-8{clip-path:url(#clip-path-10);}</style><clipPath id="clip-path" transform="translate(-12.33 -12.4)"><rect id="SVGID" class="cls-1" x="20.67" y="11.33" width="37.33" height="40"/></clipPath><clipPath id="clip-path-2" transform="translate(-12.33 -12.4)"><rect id="SVGID-2" data-name="SVGID" class="cls-1" x="14.6" y="15.19" width="72" height="71" transform="translate(-14.32 80.93) rotate(-70.03)"/></clipPath><clipPath id="clip-path-4" transform="translate(-12.33 -12.4)"><rect id="SVGID-4" data-name="SVGID" class="cls-1" x="44.67" y="50" width="36" height="38.67"/></clipPath><clipPath id="clip-path-7" transform="translate(-12.33 -12.4)"><rect id="SVGID-7" data-name="SVGID" class="cls-1" x="11.33" y="44.67" width="40" height="37.33"/></clipPath><clipPath id="clip-path-10" transform="translate(-12.33 -12.4)"><rect id="SVGID-10" data-name="SVGID" class="cls-1" x="48.67" y="20.67" width="40" height="37.33"/></clipPath></defs><title>clover1</title><g class="cls-2"><g class="cls-3"><g class="cls-3"><path class="cls-4" d="M50.18,50.23c0-.09,0-.2,0-.31a3.35,3.35,0,0,1,.19-.53c.26-.7.54-1.41.73-2.13A24.57,24.57,0,0,1,52,44.72c.31-.86.53-1.73.85-2.58a6.46,6.46,0,0,0,.33-1.09c.09-.43.29-.81.41-1.22.23-.91.45-1.8.73-2.69.08-.3.12-.58.21-.87a8.85,8.85,0,0,0,.25-1.16c0-.27.17-.51.21-.78s.11-.38.17-.59.11-.52.18-.78.24-.65.35-1,.2-.77.33-1.16.24-.82.36-1.25.2-.7.27-1.05c.13-.69.29-1.37.42-2.06a20.3,20.3,0,0,0,.18-2.34,20.89,20.89,0,0,0,0-2.74,8.77,8.77,0,0,0-.2-1.12s0,0,0,0a12.62,12.62,0,0,0-.28-1.74,11.84,11.84,0,0,0-.53-1.85,4.41,4.41,0,0,0-.94-1.59c-.28-.25-.61-.46-.91-.7a5.89,5.89,0,0,0-.73-.59A12.68,12.68,0,0,0,52,12.93a7.22,7.22,0,0,0-2.25-.51,19.78,19.78,0,0,0-2.29.13,5.58,5.58,0,0,0-2.15.26,12.75,12.75,0,0,0-1.66.71,5.41,5.41,0,0,0-1.39,1.31c-.44.51-.86,1-1.26,1.57A10.29,10.29,0,0,0,40,18c-.25.52-.4,1.11-.6,1.65A12.71,12.71,0,0,0,38.92,21c-.12.56-.22,1.11-.32,1.68a19.07,19.07,0,0,0-.53,2.89c0,.31.07.6.07.91a2.1,2.1,0,0,0,.17.71c-.1-.11-.21-.22-.28-.31a10.1,10.1,0,0,0-.87-1c-.3-.33-.61-.64-.94-1s-.65-.52-1-.8a12,12,0,0,0-4.94-2.66,6.63,6.63,0,0,0-1.66-.28c-.43,0-.84.07-1.27.09a5.83,5.83,0,0,0-2.62.68,5.17,5.17,0,0,0-1.88,1.72,4.59,4.59,0,0,0-.63,2.06A21.65,21.65,0,0,0,22,28.87a6.84,6.84,0,0,0,.56,2.22,8.6,8.6,0,0,0,.63,1.38c.29.47.45,1,.77,1.42.57.84,1.07,1.7,1.66,2.54.41.59.89,1.13,1.33,1.69a9,9,0,0,0,1.14,1.32c.26.24.51.53.79.75.49.39,1.06.7,1.56,1.09.68.53,1.37,1.1,2.09,1.59a13.21,13.21,0,0,0,1.56.87,17.85,17.85,0,0,1,1.59,1,15.87,15.87,0,0,0,2.07,1.12c.82.39,1.64.73,2.44,1.18.47.25,1,.43,1.45.67a23.82,23.82,0,0,0,3.69,1.55c.73.21,1.47.46,2.21.63.46.1.9.28,1.35.34s.69.08,1,.16Z" transform="translate(-12.33 -12.4)"/></g></g></g><g class="cls-5"><g class="cls-3"><g class="cls-3"><path class="cls-4" d="M49.7,50.44c0,.1,0,.2,0,.31a3.5,3.5,0,0,1-.13.56c-.16.73-.36,1.46-.46,2.2s-.37,1.75-.57,2.62-.33,1.78-.53,2.67a6.4,6.4,0,0,0-.19,1.12c0,.43-.2.84-.25,1.26-.12.93-.23,1.85-.4,2.76-.05.28-.06.59-.12.88A9.39,9.39,0,0,0,47,66c0,.28-.11.53-.12.8a4.42,4.42,0,0,1-.1.6c-.06.26,0,.52-.08.78s-.16.66-.23,1-.11.79-.19,1.2-.15.85-.21,1.29-.11.72-.14,1.07c0,.71-.14,1.4-.17,2.11a16.6,16.6,0,0,0,.11,2.34,19.16,19.16,0,0,0,.39,2.72A6.77,6.77,0,0,0,46.55,81s0,0,0,0A10.14,10.14,0,0,0,47,82.7a11.57,11.57,0,0,0,.74,1.77,4.37,4.37,0,0,0,1.13,1.45c.31.22.66.37,1,.6a8.15,8.15,0,0,0,.8.49,10.53,10.53,0,0,0,1.72.66,7.73,7.73,0,0,0,2.29.24c.77,0,1.5-.3,2.25-.39a5.7,5.7,0,0,0,2.1-.52,12.64,12.64,0,0,0,1.56-.9,6.05,6.05,0,0,0,1.23-1.47c.37-.57.73-1.13,1.06-1.72a9.92,9.92,0,0,0,.79-1.68,16.15,16.15,0,0,0,.4-1.7,11.61,11.61,0,0,0,.28-1.45c0-.57.07-1.13.13-1.7a19.13,19.13,0,0,0,.16-2.92c0-.31-.14-.59-.19-.91a1.8,1.8,0,0,0-.24-.67,2,2,0,0,1,.31.26c.3.32.64.58,1,.88s.68.56,1,.83.72.45,1.07.69a12.09,12.09,0,0,0,5.22,2,6.8,6.8,0,0,0,1.69.09c.43-.06.82-.17,1.24-.24a5.78,5.78,0,0,0,2.52-1,5.06,5.06,0,0,0,1.64-1.94,4.51,4.51,0,0,0,.37-2.12,20.39,20.39,0,0,0-.13-3.13,7.4,7.4,0,0,0-.82-2.15,8.18,8.18,0,0,0-.79-1.28c-.33-.43-.56-.89-.92-1.31-.67-.76-1.27-1.57-2-2.31-.49-.53-1-1-1.53-1.51a9.06,9.06,0,0,0-1.3-1.18c-.29-.21-.57-.45-.88-.64-.53-.33-1.14-.58-1.68-.9-.75-.44-1.5-.93-2.27-1.32A12.38,12.38,0,0,0,66.39,55a14.16,14.16,0,0,1-1.71-.82,15.79,15.79,0,0,0-2.19-.86c-.85-.28-1.71-.52-2.57-.87-.5-.2-1-.32-1.52-.5a22.35,22.35,0,0,0-3.86-1.09c-.76-.14-1.52-.28-2.28-.36-.46,0-.92-.16-1.37-.17s-.7,0-1,0Z" transform="translate(-12.33 -12.4)"/></g></g></g><g class="cls-6"><g class="cls-3"><g class="cls-3"><path class="cls-7" d="M49.14,49.94c-.51-.18-.94-.45-1.42-.65-.25-.11-.46-.31-.71-.41s-.55-.2-.82-.3A18.59,18.59,0,0,0,44.3,48c-.33-.07-.61-.25-.95-.31s-.49,0-.73,0c-.74-.14-1.5-.37-2.25-.5a41.56,41.56,0,0,0-4.57-.93c-.86-.06-1.72-.06-2.58-.11a10.91,10.91,0,0,1-1.94-.32,24.06,24.06,0,0,0-3.79-.26,24.63,24.63,0,0,0-5.29.07,5.76,5.76,0,0,0-1.59.32c-.3.13-.63.19-.92.32a10.59,10.59,0,0,0-1,.58c-.34.18-.71.2-1,.38a5.84,5.84,0,0,0-.69.56,1.07,1.07,0,0,0-.16.14c-.36.14-.71.3-1,.46a4.48,4.48,0,0,0-1.45,1.12c-.21.31-.37.66-.58,1a6.32,6.32,0,0,0-.49.8A10.69,10.69,0,0,0,12.56,53a7.76,7.76,0,0,0-.23,2.3c0,.76.32,1.49.42,2.25a5.62,5.62,0,0,0,.54,2.1,13.32,13.32,0,0,0,.92,1.54,6.42,6.42,0,0,0,1.48,1.22c.58.36,1.14.71,1.73,1a10.45,10.45,0,0,0,1.69.8,16.3,16.3,0,0,0,1.71.39,14.39,14.39,0,0,0,1.46.26c.57,0,1.14.07,1.71.12a20.69,20.69,0,0,0,2.94.15c.31,0,.59-.13.91-.19a1.51,1.51,0,0,0,.67-.26,2.07,2.07,0,0,1-.27.31,11.38,11.38,0,0,0-.86,1c-.28.35-.57.69-.83,1s-.45.71-.68,1.06a11.49,11.49,0,0,0-2,5.22A6.76,6.76,0,0,0,23.82,75c.07.42.18.81.26,1.23a6.09,6.09,0,0,0,1,2.5,5.11,5.11,0,0,0,2,1.64,4.85,4.85,0,0,0,2.13.37,20.2,20.2,0,0,0,3.12-.14,8,8,0,0,0,2.14-.82,8.25,8.25,0,0,0,1.27-.8c.44-.33.9-.57,1.32-.94.77-.66,1.56-1.26,2.3-2,.53-.49,1-1,1.5-1.54A8.07,8.07,0,0,0,42,73.25c.19-.3.45-.58.64-.88.33-.54.57-1.14.88-1.68.44-.75.93-1.5,1.31-2.26a16.76,16.76,0,0,0,.67-1.65,14,14,0,0,1,.81-1.71,15.57,15.57,0,0,0,.84-2.18c.28-.86.51-1.72.85-2.57.2-.5.3-1,.48-1.52a22.24,22.24,0,0,0,1.05-3.86c.13-.76.27-1.52.33-2.26,0-.46.16-.92.17-1.38s0-.69,0-1l-.19-.13H49.8l.08,0H49.5a.45.45,0,0,0,.16,0h-.12a.9.9,0,0,1-.16,0h.12A2.43,2.43,0,0,0,49.14,49.94Z" transform="translate(-12.33 -12.4)"/></g></g></g><g class="cls-8"><g class="cls-3"><g class="cls-3"><path class="cls-7" d="M72.91,21.32a20.43,20.43,0,0,0-3.13-.08,7.76,7.76,0,0,0-2.2.66,8.85,8.85,0,0,0-1.33.7c-.46.3-.93.5-1.36.83-.82.61-1.66,1.15-2.45,1.79-.56.45-1.07,1-1.61,1.42a10.16,10.16,0,0,0-1.25,1.2c-.22.3-.48.55-.69.85-.36.52-.65,1.09-1,1.61-.49.72-1,1.43-1.48,2.17a13.2,13.2,0,0,0-.79,1.6,14.85,14.85,0,0,1-.93,1.65,13.74,13.74,0,0,0-1,2.13c-.34.83-.65,1.68-1,2.5-.23.49-.38,1-.59,1.48a24.52,24.52,0,0,0-1.34,3.77c-.18.74-.38,1.5-.5,2.25-.07.44-.21.91-.26,1.36s0,.7-.08,1l.18.16a1.5,1.5,0,0,1,.3,0l.08,0s.1,0,.18.07c.25.11.41.29.68.41s.67.19,1,.33a10.17,10.17,0,0,0,1,.54l2.08.76c.29.1.59.2.87.31s.73.4,1.13.55c1.3.52,2.63.93,3.92,1.42.71.26,1.45.26,2.14.49a19.39,19.39,0,0,0,2.49.54,7.91,7.91,0,0,0,1.28.19c.43,0,.85,0,1.29.08.95.15,1.94.24,2.89.36.74.1,1.45.14,2.18.18s1.57.13,2.36.13,1.37,0,2-.05,1.57-.26,2.35-.37a6,6,0,0,0,2.91-1.47L84,54.6a4.07,4.07,0,0,0,1.54-1c.23-.3.41-.64.66-.94a6.88,6.88,0,0,0,.55-.75,11.53,11.53,0,0,0,.76-1.68,7.3,7.3,0,0,0,.38-2.27c0-.76-.21-1.5-.25-2.28a5.82,5.82,0,0,0-.39-2.12,14.3,14.3,0,0,0-.82-1.61A5.5,5.5,0,0,0,85,40.61c-.55-.4-1.08-.79-1.65-1.17a9.89,9.89,0,0,0-1.62-.91c-.53-.22-1.13-.34-1.68-.51a12.53,12.53,0,0,0-1.43-.37c-.58-.09-1.13-.16-1.71-.23A19.27,19.27,0,0,0,74,37.05a7.24,7.24,0,0,0-.92.12,1.53,1.53,0,0,0-.68.2c.1-.09.2-.21.27-.28a9.08,9.08,0,0,0,.94-.92l.92-1c.28-.32.48-.68.75-1a11.7,11.7,0,0,0,2.36-5,6.33,6.33,0,0,0,.18-1.67c0-.42-.12-.83-.17-1.26a6.16,6.16,0,0,0-.82-2.57A5.38,5.38,0,0,0,75,21.86,4.45,4.45,0,0,0,72.91,21.32Z" transform="translate(-12.33 -12.4)"/></g></g></g></svg>