<svg id="Layer_1" data-name="Layer 1" xmlns="http://www.w3.org/2000/svg" viewBox="0 0 98 60.59"><defs><style>.cls-1{fill:#f8a233;}.cls-2{fill:#fdd831;}.cls-3{fill:#f9a933;}.cls-4{fill:#fdd846;}.cls-5{fill:#fee67c;}.cls-6{fill:#fbc777;}.cls-7{fill:#fee789;}</style></defs><title>coin</title><path class="cls-1" d="M45.55,42a43.47,43.47,0,0,0-5.49-4,44.15,44.15,0,0,0-6-3.14l-7.43-4.59-2.34,3.79c-1.44,2.33,3.3,7.86,10.58,12.35s14.35,6.26,15.78,3.94L53,46.62,45.55,42" transform="translate(-1 -19.7)"/><path class="cls-2" d="M52.77,47c-1.44,2.32-8.51.57-15.79-3.93S25,33,26.4,30.7s8.51-.57,15.79,3.93,12,10,10.58,12.35" transform="translate(-1 -19.7)"/><path class="cls-3" d="M50.11,45.34c-1.14,1.85-6.79.45-12.6-3.14s-9.6-8-8.45-9.86,6.79-.46,12.6,3.13,9.6,8,8.45,9.87" transform="translate(-1 -19.7)"/><path class="cls-4" d="M44.69,42.44l-.31-.6c-.06-.12.12,0,.28,0l.36,0c.79.06,1.07-.33.79-1a2.94,2.94,0,0,0-2-1.44s-1.51-.29-2.73-.49c1.1,0,2.36-.07,2.36-.07,1,0,.94-1.21-.59-2a2.88,2.88,0,0,0-1-.31l-.73-.11c-.16,0-.13-.13-.21-.26l-.19-.32a3.15,3.15,0,0,0-2-1.34c-.8-.16-1.24.22-1,.85,0,0,.52,1.18,1,2.17-.72-1-1.66-2.2-1.66-2.2-.7-.92-2.52-1.66-2.82-.8a.91.91,0,0,0,.16.71l.31.59c.06.13-.13,0-.27,0l-.37,0c-.79-.07-1.07.32-.79,1a3,3,0,0,0,2,1.43s1.5.3,2.72.49c-1.1,0-2.36.07-2.36.07-1,0-.94,1.22.59,2a2.86,2.86,0,0,0,1,.32l.72.1c.16,0,.12.13.2.26l.2.32a3.09,3.09,0,0,0,2,1.34c.81.17,1.25-.22,1-.85,0,0-.52-1.18-1-2.16.72,1,1.65,2.2,1.65,2.2.71.92,2.53,1.65,2.82.79.06-.13,0-.36-.15-.7" transform="translate(-1 -19.7)"/><path class="cls-5" d="M44.5,46.38a39,39,0,0,1-4.15-1.9l-.55-1a29.53,29.53,0,0,0,4,1.78l.67,1.09M36.67,32.9A20.46,20.46,0,0,0,33,31.72l-.66-1.16a23.57,23.57,0,0,1,3.77,1.24c.18.36.36.73.55,1.1" transform="translate(-1 -19.7)"/><path class="cls-6" d="M43.83,45.29a29.53,29.53,0,0,1-4-1.78c-.13-.25-.28-.5-.42-.75a3.39,3.39,0,0,0,1,.4,1.56,1.56,0,0,0,.35,0c.58,0,.86-.35.62-.89,0,0-.52-1.18-1-2.16.72,1,1.65,2.2,1.65,2.2l.15.17a1,1,0,0,0,.11.17c.52.9,1,1.74,1.55,2.6m-6.74-6.57-.11-.2,1.07.18h0l-.93,0m1.71-1.19c-.72-1-1.66-2.2-1.66-2.2A3.25,3.25,0,0,0,35,34.15a.76.76,0,0,0-.46.13l0-.07c-.5-.82-1-1.65-1.46-2.49a20.46,20.46,0,0,1,3.66,1.18l1,2a.77.77,0,0,0,.07.5s.52,1.18,1,2.17" transform="translate(-1 -19.7)"/><path class="cls-7" d="M40.77,43.2a1.56,1.56,0,0,1-.35,0,3.39,3.39,0,0,1-1-.4c-.76-1.37-1.52-2.71-2.29-4l.93,0h0L37,38.52c-.81-1.4-1.62-2.81-2.48-4.24a.76.76,0,0,1,.46-.13,3.25,3.25,0,0,1,2.18,1.18s.94,1.2,1.66,2.2c-.5-1-1-2.17-1-2.17a.77.77,0,0,1-.07-.5c1.42,2.59,3,5.12,4.46,7.66L42,42.35s-.93-1.2-1.65-2.2c.5,1,1,2.16,1,2.16.24.54,0,.89-.62.89" transform="translate(-1 -19.7)"/><path class="cls-1" d="M63,46.35a43.41,43.41,0,0,0-4-5.51A44.91,44.91,0,0,0,54.34,36l-5.61-6.69-3.41,2.85c-2.1,1.76.65,8.5,6.14,15.06S63.1,57.66,65.19,55.9L68.61,53,63,46.35" transform="translate(-1 -19.7)"/><path class="cls-2" d="M68.29,53.31c-2.09,1.76-8.24-2.14-13.73-8.71s-8.24-13.31-6.14-15.06,8.24,2.15,13.74,8.71,8.23,13.31,6.13,15.06" transform="translate(-1 -19.7)"/><path class="cls-3" d="M66.29,50.92c-1.67,1.4-6.58-1.72-11-7s-6.57-10.62-4.9-12,6.58,1.71,11,7,6.57,10.63,4.9,12" transform="translate(-1 -19.7)"/><path class="cls-4" d="M62.06,46.45l-.1-.66c0-.14.12,0,.26.07l.34.15c.73.31,1.12,0,1.06-.66a3,3,0,0,0-1.42-2s-1.34-.76-2.43-1.33c1,.34,2.26.68,2.26.68.94.27,1.28-.86.09-2.13a3,3,0,0,0-.85-.62l-.66-.33c-.15-.08-.08-.16-.11-.31L60.41,39a3.19,3.19,0,0,0-1.49-1.92c-.71-.4-1.24-.18-1.18.51,0,0,.12,1.28.28,2.37-.36-1.17-.87-2.6-.87-2.6-.38-1.1-1.87-2.37-2.43-1.65a.92.92,0,0,0-.07.72l.1.66c0,.14-.12,0-.26-.07l-.34-.14c-.73-.32-1.12,0-1,.66a2.94,2.94,0,0,0,1.41,2s1.34.76,2.43,1.32c-1-.34-2.26-.68-2.26-.68-.94-.27-1.28.86-.09,2.13a2.61,2.61,0,0,0,.86.62l.65.34c.14.07.08.16.11.31l.09.36a3.17,3.17,0,0,0,1.49,1.91c.71.41,1.24.18,1.18-.51,0,0-.12-1.28-.28-2.37.36,1.17.87,2.61.87,2.61.38,1.09,1.87,2.36,2.43,1.65a.93.93,0,0,0,.07-.73" transform="translate(-1 -19.7)"/><path class="cls-5" d="M66.56,53.37a9,9,0,0,1-2.26-.79c-.11-.51-.22-1-.32-1.57a3.87,3.87,0,0,0,1.26.24,1.74,1.74,0,0,0,1-.26c.21,1.13.37,2,.43,2.38h-.07m-1.66-9.5a35.44,35.44,0,0,0-3.37-4.81c-.1-.38-.19-.76-.28-1.15,0-.08,0-.16,0-.25.11.14.23.28.35.41a35.06,35.06,0,0,1,3,3.88c.07.43.2,1.11.35,1.92" transform="translate(-1 -19.7)"/><path class="cls-6" d="M65.24,51.25A3.87,3.87,0,0,1,64,51c-.24-1.24-.46-2.54-.69-3.72-.08-.39-.15-.77-.22-1.16h0c.39,0,.58-.28.54-.78a2.88,2.88,0,0,0-1-1.7c-.05-.3-.12-.6-.18-.9.62-.11.71-1.08-.3-2.16a3.13,3.13,0,0,0-.26-.25l-.33-1.28a35.44,35.44,0,0,1,3.37,4.81c.37,2.07.92,5,1.3,7.12a1.74,1.74,0,0,1-1,.26" transform="translate(-1 -19.7)"/><path class="cls-7" d="M63.08,46.13h0c-.15-.83-.31-1.66-.47-2.48a2.88,2.88,0,0,1,1,1.7c0,.5-.15.78-.54.78m-.66-3.38c-.13-.62-.27-1.25-.43-1.86,0-.18-.09-.37-.13-.55a3.13,3.13,0,0,1,.26.25c1,1.08.92,2,.3,2.16" transform="translate(-1 -19.7)"/><path class="cls-6" d="M60.35,48.89a30.5,30.5,0,0,1-3.26-3c-.05-.29-.11-.58-.16-.86a3.12,3.12,0,0,0,.86.72,1.3,1.3,0,0,0,.64.2c.36,0,.58-.25.54-.71,0,0-.12-1.28-.28-2.37.36,1.17.87,2.61.87,2.61s0,.13.08.2a1.46,1.46,0,0,1,0,.2c.22,1,.43,2,.66,3m-3.41-8.08L56,40.52c0-.07,0-.14-.05-.22l1,.51M58,39.93c-.36-1.17-.87-2.6-.87-2.6-.3-.88-1.31-1.86-2-1.86a.48.48,0,0,0-.18,0,.24.24,0,0,1,0-.08c-.21-.94-.41-1.87-.6-2.82a20.69,20.69,0,0,1,3.11,2.27c.11.73.23,1.46.37,2.19a.76.76,0,0,0-.1.5s.12,1.28.28,2.37" transform="translate(-1 -19.7)"/><path class="cls-7" d="M58.43,46a1.3,1.3,0,0,1-.64-.2,3.12,3.12,0,0,1-.86-.72c-.3-1.53-.59-3-.9-4.56l.91.29-1-.51c-.32-1.58-.65-3.17-1-4.8a.48.48,0,0,1,.18,0c.68,0,1.69,1,2,1.86,0,0,.51,1.43.87,2.6-.16-1.09-.28-2.37-.28-2.37a.76.76,0,0,1,.1-.5c.52,2.9,1.19,5.79,1.8,8.67,0-.07,0-.14-.08-.2s-.51-1.44-.87-2.61c.16,1.09.28,2.37.28,2.37,0,.46-.18.71-.54.71" transform="translate(-1 -19.7)"/><path class="cls-1" d="M31.46,26.38a46.66,46.66,0,0,0-9,10l-5.85,6.49,3.31,3c2,1.83,8.32-1.84,14.05-8.19s8.74-13,6.71-14.82l-3.31-3-5.86,6.48" transform="translate(-1 -19.7)"/><path class="cls-2" d="M37.63,20.17c2,1.84-1,8.47-6.7,14.83s-12,10-14.06,8.19,1-8.47,6.7-14.82,12-10,14.06-8.2" transform="translate(-1 -19.7)"/><path class="cls-3" d="M35.53,22.5c1.63,1.46-.77,6.76-5.35,11.83s-9.6,8-11.22,6.54.77-6.76,5.35-11.84,9.6-8,11.22-6.53" transform="translate(-1 -19.7)"/><path class="cls-4" d="M31.71,27.31l-.64.19c-.14,0,0-.12,0-.27l.09-.35c.21-.77-.12-1.11-.8-.95a2.94,2.94,0,0,0-1.76,1.67s-.57,1.43-1,2.6c.21-1.08.36-2.34.36-2.34.14-1-1-1.15-2.12.21a3,3,0,0,0-.49.93l-.23.7c-.06.15-.16.1-.3.16l-.35.14a3.07,3.07,0,0,0-1.68,1.73c-.31.77,0,1.26.66,1.11,0,0,1.26-.31,2.32-.62-1.12.53-2.46,1.23-2.46,1.23-1,.53-2.08,2.19-1.3,2.63a.9.9,0,0,0,.73,0l.64-.2c.14,0,0,.12,0,.27l-.08.35c-.21.77.12,1.12.79,1a3,3,0,0,0,1.77-1.68s.56-1.43,1-2.59c-.2,1.08-.36,2.34-.36,2.34-.14,1,1,1.14,2.12-.22a2.6,2.6,0,0,0,.5-.93l.23-.7c.06-.15.15-.09.3-.15l.34-.14a3.14,3.14,0,0,0,1.69-1.74c.3-.77,0-1.26-.67-1.1,0,0-1.25.3-2.31.61,1.11-.52,2.46-1.23,2.46-1.23,1-.52,2.07-2.18,1.29-2.63a.85.85,0,0,0-.72,0" transform="translate(-1 -19.7)"/><path class="cls-5" d="M23.13,29.4c.11-.14.23-.27.36-.41a33.62,33.62,0,0,1,3.4-3.51l1.87-.61a34,34,0,0,0-4.3,4l-1.1.43-.23.1M36,24.77a2.52,2.52,0,0,0-.34-2.19c1.09-.37,2-.66,2.29-.76a8,8,0,0,1-.45,2.41c-.48.19-1,.37-1.5.54" transform="translate(-1 -19.7)"/><path class="cls-6" d="M24.46,28.87a34,34,0,0,1,4.3-4l6.86-2.29A2.52,2.52,0,0,1,36,24.77c-1.2.42-2.46.81-3.6,1.2l-1.11.38a.51.51,0,0,0-.57-.46,1.11,1.11,0,0,0-.29,0,2.83,2.83,0,0,0-1.54,1.24l-.86.3a.56.56,0,0,0-.57-.38,2.68,2.68,0,0,0-1.73,1.28c-.42.16-.82.33-1.23.5" transform="translate(-1 -19.7)"/><path class="cls-7" d="M25.69,28.37a2.68,2.68,0,0,1,1.73-1.28.56.56,0,0,1,.57.38c-.6.22-1.2.44-1.79.68l-.51.22m3.16-1.2a2.83,2.83,0,0,1,1.54-1.24,1.11,1.11,0,0,1,.29,0,.51.51,0,0,1,.57.46l-2.4.82" transform="translate(-1 -19.7)"/><path class="cls-5" d="M17.8,37.31a25,25,0,0,1,1.9-3.48l1.18-.35a20.33,20.33,0,0,0-1.81,3.39l-1.27.44m14.09-5a30.09,30.09,0,0,0,2.47-3.64l1.19-.46a38.9,38.9,0,0,1-2.61,3.74l-1,.36" transform="translate(-1 -19.7)"/><path class="cls-6" d="M19.07,36.87a20.33,20.33,0,0,1,1.81-3.39L23,32.81a.71.71,0,0,0,.26,0l.24,0s1.26-.31,2.32-.62c-1.12.53-2.46,1.23-2.46,1.23-.9.46-1.82,1.78-1.51,2.41l-.07,0c-.9.34-1.8.67-2.71,1m7.4-2.68c.13-.34.25-.69.37-1-.06.31-.11.64-.16.95l-.21.07m4.6-1.61a3.22,3.22,0,0,0,.59-.95c.26-.67.06-1.13-.43-1.13a1,1,0,0,0-.24,0s-1.25.3-2.31.61c1.11-.52,2.46-1.23,2.46-1.23l.19-.11.19-.07c1-.36,1.9-.7,2.84-1.07a30.09,30.09,0,0,1-2.47,3.64l-.82.28" transform="translate(-1 -19.7)"/><path class="cls-7" d="M21.85,35.86c-.31-.63.61-2,1.51-2.41,0,0,1.34-.7,2.46-1.23-1.06.31-2.32.62-2.32.62l-.24,0a.71.71,0,0,1-.26,0c2.8-.93,5.56-2,8.33-3l-.19.11s-1.35.71-2.46,1.23c1.06-.31,2.31-.61,2.31-.61a1,1,0,0,1,.24,0c.49,0,.69.46.43,1.13a3.22,3.22,0,0,1-.59.95c-1.49.52-2.94,1-4.39,1.54.05-.31.1-.64.16-.95-.12.33-.24.68-.37,1-1.52.54-3,1.09-4.62,1.67" transform="translate(-1 -19.7)"/><path class="cls-1" d="M40.29,56.74a44.75,44.75,0,0,0-6.75-.57,43.38,43.38,0,0,0-6.76.41l-8.73-.11L18,60.93c0,2.73,6.88,5,15.43,5.14S48.94,64,49,61.31L49,56.85l-8.74-.11" transform="translate(-1 -19.7)"/><path class="cls-2" d="M49,57.27C49,60,42,62.13,33.47,62S18,59.62,18,56.88,25,52,33.59,52.12,49.06,54.53,49,57.27" transform="translate(-1 -19.7)"/><path class="cls-3" d="M45.9,57.23c0,2.18-5.58,3.88-12.42,3.8s-12.35-1.93-12.32-4.1S26.75,53,33.58,53.12s12.35,1.93,12.32,4.11" transform="translate(-1 -19.7)"/><path class="cls-4" d="M39.76,57.53l-.57-.35c-.12-.07.09-.09.23-.15l.32-.17c.72-.35.75-.83.19-1.22a2.93,2.93,0,0,0-2.43-.22s-1.44.52-2.59,1c.94-.56,2-1.27,2-1.27.82-.54.18-1.54-1.56-1.46a3.06,3.06,0,0,0-1,.25l-.68.28c-.15.06-.17,0-.31-.12L33,53.92a3.07,3.07,0,0,0-2.42-.12c-.77.28-.95.83-.39,1.22,0,0,1.06.75,2,1.34-1.13-.49-2.55-1-2.55-1-1.07-.42-3-.11-2.83.78,0,.14.16.31.5.52l.58.35c.11.08-.1.09-.23.15l-.33.17c-.71.35-.75.83-.19,1.23a2.94,2.94,0,0,0,2.43.21s1.44-.52,2.59-1c-.95.56-2,1.27-2,1.27-.82.55-.19,1.54,1.56,1.46a3,3,0,0,0,1-.24l.68-.29c.15-.06.18,0,.31.12l.33.17a3.16,3.16,0,0,0,2.42.11c.78-.27,1-.83.39-1.23,0,0-1-.74-2-1.33,1.12.49,2.54,1,2.54,1,1.08.42,3,.11,2.83-.77,0-.15-.16-.33-.5-.53" transform="translate(-1 -19.7)"/><path class="cls-5" d="M37.1,61.52l-1-.55a29.76,29.76,0,0,0,4.36-.55l1.14.59a39.11,39.11,0,0,1-4.53.51m-9.57-8,.24-.2a2.26,2.26,0,0,0,.2.13l-.44.07" transform="translate(-1 -19.7)"/><path class="cls-6" d="M36.13,61l-.75-.43h0a3.1,3.1,0,0,0,1.1-.19,1.13,1.13,0,0,0,.64-.45,32.36,32.36,0,0,0,3.23.44l.14.08a29.76,29.76,0,0,1-4.36.55m-4.8-2.71-.2-.11.44-.17.1.06-.34.22m-1.19-2.74-.51-.2a3.27,3.27,0,0,0-1.11-.19h-.19c-.47-.32-1-.64-1.59-1,.28-.21.54-.42.79-.63l.44-.07c.64.39,1.27.78,1.91,1.15a.66.66,0,0,0,.25.34v.55" transform="translate(-1 -19.7)"/><path class="cls-7" d="M35.38,60.54h0l-4.05-2.28.34-.22a15.71,15.71,0,0,0,5.45,1.86,1.13,1.13,0,0,1-.64.45,3.1,3.1,0,0,1-1.1.19m-4.25-2.39L31,58.07c-.12-.86-1.06-1.86-2.66-2.93h.19a3.27,3.27,0,0,1,1.11.19l.51.2V56a2.67,2.67,0,0,0,1.42,2l-.44.17m-1-3.18a.66.66,0,0,1-.25-.34l.24.14V55" transform="translate(-1 -19.7)"/><path class="cls-1" d="M90.29,60.57a46.75,46.75,0,0,0-13.48-1L68.09,59l-.31,4.45c-.2,2.72,6.56,5.43,15.1,6s15.61-1.11,15.81-3.84L99,61.19l-8.71-.62" transform="translate(-1 -19.7)"/><path class="cls-2" d="M99,61.6c-.19,2.73-7.27,4.45-15.8,3.85s-15.3-3.32-15.1-6,7.26-4.45,15.8-3.84,15.29,3.31,15.1,6" transform="translate(-1 -19.7)"/><path class="cls-3" d="M95.86,61.38c-.16,2.18-5.81,3.55-12.62,3.07S71,61.81,71.18,59.62,77,56.07,83.8,56.56,96,59.2,95.86,61.38" transform="translate(-1 -19.7)"/><path class="cls-4" d="M89.71,61.33l-.55-.39c-.11-.08.1-.08.24-.14l.33-.14c.73-.31.8-.78.26-1.22a3,3,0,0,0-2.41-.36s-1.47.44-2.64.83c1-.5,2.07-1.15,2.07-1.15.84-.5.26-1.52-1.48-1.55a2.91,2.91,0,0,0-1,.19l-.7.24c-.15,0-.16-.06-.3-.13l-.32-.19a3.13,3.13,0,0,0-2.41-.26c-.79.23-1,.77-.45,1.2,0,0,1,.81,1.9,1.45-1.09-.56-2.49-1.18-2.49-1.18-1-.49-3-.3-2.87.6,0,.15.15.33.47.55l.55.39c.12.08-.09.08-.23.14l-.33.14c-.74.31-.8.79-.26,1.22a2.94,2.94,0,0,0,2.41.35s1.46-.43,2.64-.82c-1,.5-2.07,1.15-2.07,1.15-.85.49-.26,1.52,1.48,1.54a2.6,2.6,0,0,0,1-.18l.7-.24c.15,0,.17.06.3.13l.32.2a3.21,3.21,0,0,0,2.42.25c.78-.23,1-.77.45-1.2,0,0-1-.81-1.9-1.45,1.09.55,2.48,1.18,2.48,1.18,1,.49,3,.3,2.87-.6,0-.15-.14-.33-.47-.55" transform="translate(-1 -19.7)"/><path class="cls-6" d="M85.94,64.55h-.06l-.72-.48h.2a3.15,3.15,0,0,0,.92-.13c.78-.23,1-.77.45-1.2,0,0-1-.81-1.9-1.45,1.09.55,2.48,1.18,2.48,1.18l.2.09.18.1c.89.56,1.72,1.06,2.58,1.58a30.25,30.25,0,0,1-4.33.3m-4.69-3-.19-.13c.35-.1.7-.22,1-.33-.29.14-.58.3-.85.46m1-1.85c-.66-.33-1.42-.69-1.92-.92l.26-.33c.36.28,1,.8,1.66,1.25" transform="translate(-1 -19.7)"/><path class="cls-7" d="M85.36,64.08h-.2l-.71-.46-.22-.55-.06,0A3.49,3.49,0,0,0,81.9,62l-.65-.4c.27-.16.56-.32.85-.46-.34.11-.69.23-1,.33L79,60.11a13.68,13.68,0,0,0,1.32-1.32c.5.23,1.26.59,1.92.92-.62-.45-1.3-1-1.66-1.25l.13-.17c2.25,1.47,4.55,2.86,6.83,4.28l-.2-.09s-1.39-.63-2.48-1.18c.89.64,1.9,1.45,1.9,1.45.54.43.33,1-.45,1.2a3.15,3.15,0,0,1-.92.13" transform="translate(-1 -19.7)"/><path class="cls-1" d="M71.66,54.66a45,45,0,0,0-6.46,2.05,45.51,45.51,0,0,0-6.09,3L51,62.91l1.65,4.14c1,2.54,8.27,2,16.22-1.15s13.57-7.79,12.56-10.34l-1.66-4.13-8.11,3.23" transform="translate(-1 -19.7)"/><path class="cls-2" d="M79.93,51.81c1,2.54-4.61,7.17-12.56,10.35S52.16,65.84,51.15,63.3,55.76,56.13,63.7,53s15.21-3.69,16.23-1.15" transform="translate(-1 -19.7)"/><path class="cls-3" d="M77,53c.81,2-3.68,5.72-10,8.26s-12.15,2.94-13,.91,3.68-5.73,10-8.26S76.22,50.94,77,53" transform="translate(-1 -19.7)"/><path class="cls-4" d="M71.47,55.6l-.66-.11c-.14,0,0-.11.15-.23L71.2,55c.52-.6.37-1.06-.3-1.21a3,3,0,0,0-2.33.72s-1.13,1-2,1.9c.65-.88,1.35-1.94,1.35-1.94.55-.81-.42-1.48-2-.74a2.83,2.83,0,0,0-.85.62l-.52.52c-.12.11-.18,0-.33,0l-.37,0a3.11,3.11,0,0,0-2.28.81c-.61.56-.56,1.13.11,1.28,0,0,1.26.29,2.35.48-1.23,0-2.76,0-2.76,0-1.15,0-2.82,1-2.32,1.79a.92.92,0,0,0,.66.29l.67.11c.14,0-.05.11-.15.23l-.24.28c-.53.59-.38,1,.29,1.2a3,3,0,0,0,2.33-.72s1.13-1,2-1.9c-.65.88-1.35,1.94-1.35,1.94-.55.8.42,1.48,2,.74a2.69,2.69,0,0,0,.84-.62l.52-.51c.12-.11.18,0,.34,0l.36,0a3.11,3.11,0,0,0,2.28-.81c.62-.56.57-1.13-.11-1.29,0,0-1.25-.28-2.34-.47,1.23,0,2.75,0,2.75,0,1.16,0,2.83-1,2.32-1.8-.08-.13-.27-.24-.66-.29" transform="translate(-1 -19.7)"/><path class="cls-5" d="M78,55.38,76.4,55.2a2.52,2.52,0,0,0,.66-2.12l2.4.33a7.83,7.83,0,0,1-1.47,2M64.28,53.8l-1.18-.09-.25,0c.16-.07.33-.15.5-.21A35.38,35.38,0,0,1,68,51.83l1.94.27a35.89,35.89,0,0,0-5.62,1.7" transform="translate(-1 -19.7)"/><path class="cls-6" d="M76.4,55.2c-1.26-.16-2.56-.36-3.75-.51l-1.18-.15c.13-.37-.08-.65-.57-.76a1.5,1.5,0,0,0-.37,0,3.17,3.17,0,0,0-1.56.47l-.91-.1c.06-.4-.29-.71-.91-.71a3.07,3.07,0,0,0-1.24.32l-.31.17-1.32-.09a35.89,35.89,0,0,1,5.62-1.7l7.16,1a2.52,2.52,0,0,1-.66,2.12" transform="translate(-1 -19.7)"/><path class="cls-7" d="M71.47,54.54,69,54.21a3.17,3.17,0,0,1,1.56-.47,1.5,1.5,0,0,1,.37,0c.49.11.7.39.57.76m-3.41-.43c-.63-.08-1.27-.13-1.9-.18l-.56,0,.31-.17a3.07,3.07,0,0,1,1.24-.32c.62,0,1,.31.91.71" transform="translate(-1 -19.7)"/><path class="cls-5" d="M70.53,60.3l-1.1-.14A31.14,31.14,0,0,0,73.25,58l1.27.11a36.66,36.66,0,0,1-4,2.2" transform="translate(-1 -19.7)"/><path class="cls-6" d="M69.43,60.16l-.86-.11a3.39,3.39,0,0,0,.94-.59c.62-.56.57-1.13-.11-1.29,0,0-1.25-.28-2.34-.47h.85c1,0,1.9,0,1.9,0l.22,0,.2,0,3,.3a31.14,31.14,0,0,1-3.82,2.17M64,59.49l-.22,0,.78-.75-.56.78m-5.1-.57h-.08l-1.93-.2a9.15,9.15,0,0,0,3.67-2.12l.71.1a.78.78,0,0,0,.45.24s1.26.29,2.35.48h-.87c-1,0-1.89,0-1.89,0-1,0-2.41.79-2.41,1.49" transform="translate(-1 -19.7)"/><path class="cls-7" d="M68.57,60.05,64,59.49l.56-.78-.78.75c-1.6-.19-3.22-.37-4.88-.54,0-.7,1.4-1.48,2.41-1.49,0,0,.92,0,1.89,0H64c-1.09-.19-2.35-.48-2.35-.48a.78.78,0,0,1-.45-.24c2.93.4,5.88.67,8.81,1l-.22,0s-.92,0-1.9,0h-.85c1.09.19,2.34.47,2.34.47.68.16.73.73.11,1.29a3.39,3.39,0,0,1-.94.59" transform="translate(-1 -19.7)"/><path class="cls-1" d="M76.11,66.29a45.39,45.39,0,0,0-6.46,2,46.11,46.11,0,0,0-6.09,3l-8.12,3.24,1.65,4.14c1,2.54,8.29,2,16.23-1.14S86.89,69.73,85.88,67.2l-1.65-4.14-8.12,3.23" transform="translate(-1 -19.7)"/><path class="cls-2" d="M84.38,63.44c1,2.54-4.61,7.17-12.55,10.34S56.61,77.47,55.6,74.93s4.6-7.17,12.55-10.34,15.21-3.69,16.23-1.15" transform="translate(-1 -19.7)"/><path class="cls-3" d="M81.48,64.6c.81,2-3.68,5.73-10,8.25s-12.15,3-13,.92,3.68-5.72,10-8.26,12.15-2.94,13-.91" transform="translate(-1 -19.7)"/><path class="cls-4" d="M75.92,67.23l-.66-.11c-.14,0,0-.11.15-.23l.24-.28c.52-.59.38-1-.3-1.2a3,3,0,0,0-2.32.72s-1.14,1-2,1.91c.66-.89,1.35-2,1.35-2,.56-.81-.42-1.48-2-.74a2.86,2.86,0,0,0-.86.61l-.52.53c-.11.11-.18,0-.33,0l-.37,0a3.12,3.12,0,0,0-2.28.81c-.61.56-.56,1.13.11,1.29,0,0,1.26.28,2.34.47-1.22,0-2.74,0-2.74,0-1.16,0-2.83,1-2.33,1.79a1,1,0,0,0,.67.29l.66.11c.14,0,0,.11-.15.23l-.24.27c-.52.6-.38,1.06.3,1.21A3,3,0,0,0,67,72.24s1.14-1,2-1.9c-.66.88-1.36,1.94-1.36,1.94-.55.81.42,1.48,2,.74a2.86,2.86,0,0,0,.86-.62l.52-.52c.11-.11.17,0,.32,0l.38,0A3.14,3.14,0,0,0,74,71.09c.61-.56.56-1.13-.11-1.28,0,0-1.26-.29-2.34-.48,1.22,0,2.74,0,2.74,0,1.16,0,2.83-1,2.32-1.8-.08-.12-.26-.24-.66-.29" transform="translate(-1 -19.7)"/><path class="cls-5" d="M82.44,67l-1.59-.18a2.53,2.53,0,0,0,.67-2.12l2.39.33a7.83,7.83,0,0,1-1.47,2M68.73,65.43l-1.18-.09-.25,0,.5-.21a36.46,36.46,0,0,1,4.61-1.65l2,.27a36,36,0,0,0-5.63,1.7" transform="translate(-1 -19.7)"/><path class="cls-6" d="M80.85,66.83c-1.26-.16-2.55-.36-3.75-.51l-1.17-.15c.13-.37-.09-.65-.58-.76a1.37,1.37,0,0,0-.36,0,3.21,3.21,0,0,0-1.57.47l-.91-.1c.06-.41-.29-.71-.9-.71a3,3,0,0,0-1.24.32,2.48,2.48,0,0,0-.32.17l-1.32-.09a36,36,0,0,1,5.63-1.7l7.16,1a2.53,2.53,0,0,1-.67,2.12" transform="translate(-1 -19.7)"/><path class="cls-7" d="M75.93,66.17l-2.51-.33A3.21,3.21,0,0,1,75,65.37a1.37,1.37,0,0,1,.36,0c.49.11.71.39.58.76m-3.42-.43c-.63-.08-1.26-.13-1.9-.18l-.56,0a2.48,2.48,0,0,1,.32-.17A3,3,0,0,1,71.61,65c.61,0,1,.3.9.71" transform="translate(-1 -19.7)"/><path class="cls-5" d="M75,71.93l-1.1-.14a29.21,29.21,0,0,0,3.82-2.18c.42,0,.84.08,1.27.12a36.66,36.66,0,0,1-4,2.2m-14.62-1.7L59,70.06a24.93,24.93,0,0,1,3.24-2.28l1.21.21a21.24,21.24,0,0,0-3.12,2.24" transform="translate(-1 -19.7)"/><path class="cls-6" d="M73.88,71.79,73,71.68a3.44,3.44,0,0,0,1-.59c.61-.56.56-1.13-.11-1.28,0,0-1.26-.29-2.34-.48h.87c1,0,1.87,0,1.87,0l.23,0,.19,0,3,.29a29.21,29.21,0,0,1-3.82,2.18m-5.47-.67-.23,0,.79-.75-.56.78m-5.11-.57h-.07c-1-.09-1.91-.19-2.87-.31A21.24,21.24,0,0,1,63.48,68c.73.12,1.47.23,2.2.33a.78.78,0,0,0,.44.25s1.26.28,2.34.47h-.87c-1,0-1.87,0-1.87,0-1,0-2.41.8-2.42,1.49" transform="translate(-1 -19.7)"/><path class="cls-7" d="M73,71.68l-4.61-.56.56-.78-.79.75c-1.6-.19-3.22-.37-4.88-.54,0-.69,1.41-1.48,2.42-1.49,0,0,.9,0,1.87,0h.87c-1.08-.19-2.34-.47-2.34-.47a.78.78,0,0,1-.44-.25c2.92.4,5.87.68,8.81,1l-.23,0s-.9,0-1.87,0h-.87c1.08.19,2.33.47,2.34.48.67.15.72.72.11,1.28a3.44,3.44,0,0,1-1,.59" transform="translate(-1 -19.7)"/><path class="cls-1" d="M52.28,50.92a46.43,46.43,0,0,0-13.52.37L30,51.52,30.15,56c.08,2.73,7.07,4.76,15.63,4.53s15.42-2.64,15.35-5.37L61,50.69l-8.73.23" transform="translate(-1 -19.7)"/><path class="cls-2" d="M61,51.1c.07,2.74-6.8,5.14-15.36,5.37s-15.54-1.8-15.61-4.53,6.79-5.14,15.35-5.37S61,48.37,61,51.1" transform="translate(-1 -19.7)"/><path class="cls-3" d="M57.9,51.18c.06,2.19-5.43,4.11-12.26,4.29S33.22,54,33.16,51.86s5.43-4.1,12.26-4.29S57.84,49,57.9,51.18" transform="translate(-1 -19.7)"/><path class="cls-4" d="M51.78,51.73l-.59-.33c-.12-.07.09-.09.22-.16l.32-.18c.7-.37.72-.85.14-1.23a3,3,0,0,0-2.43-.13s-1.43.59-2.55,1.09c.92-.6,1.94-1.35,1.94-1.35.79-.57.12-1.54-1.62-1.39a2.71,2.71,0,0,0-1,.29l-.67.31c-.15.06-.18,0-.32-.11l-.33-.15a3.08,3.08,0,0,0-2.42,0c-.77.31-.92.87-.34,1.25,0,0,1.07.69,2,1.25-1.14-.44-2.58-.94-2.58-.94-1.09-.38-3,0-2.8.88,0,.15.17.32.52.51l.58.33c.12.07-.08.09-.22.16l-.31.18c-.7.37-.72.85-.14,1.23a3,3,0,0,0,2.43.12s1.42-.57,2.54-1.08c-.91.6-1.94,1.36-1.94,1.36-.79.56-.12,1.52,1.62,1.38a2.86,2.86,0,0,0,1-.28l.66-.31c.15-.07.18,0,.32.1l.34.16a3.12,3.12,0,0,0,2.42,0c.76-.31.91-.86.34-1.25,0,0-1.08-.7-2-1.25,1.15.45,2.59.94,2.59.94,1.09.38,3,0,2.79-.88,0-.15-.16-.32-.51-.51" transform="translate(-1 -19.7)"/><path class="cls-5" d="M49.27,55.82l-1-.51c.93-.09,1.83-.21,2.67-.36l.33.49.1.12c-.69.1-1.41.18-2.12.26M36.14,49.18l-1.2-.62a25.84,25.84,0,0,1,3.63-1l1.2.54.07,0a20.26,20.26,0,0,0-3.7,1" transform="translate(-1 -19.7)"/><path class="cls-6" d="M48.29,55.31l-.78-.4a3.37,3.37,0,0,0,1.1-.23c.76-.31.91-.86.34-1.25,0,0-1.08-.7-2-1.25,1.15.45,2.59.94,2.59.94l.21.06.07,0L51,55c-.84.15-1.74.27-2.67.36m-4.91-2.53-.2-.09,1-.44-.79.53m.77-1.92c-1.14-.44-2.58-.94-2.58-.94a3.3,3.3,0,0,0-1-.15c-.81,0-1.63.26-1.81.73l-.06,0c-.87-.42-1.73-.84-2.58-1.28a20.26,20.26,0,0,1,3.7-1c.64.37,1.29.72,1.95,1.07a.79.79,0,0,0,.33.39s1.07.69,2,1.25" transform="translate(-1 -19.7)"/><path class="cls-7" d="M47.51,54.91l-4.13-2.13.79-.53-1,.44c-1.44-.74-2.89-1.46-4.4-2.19.18-.47,1-.73,1.81-.73a3.3,3.3,0,0,1,1,.15s1.44.5,2.58.94c-1-.56-2-1.25-2-1.25a.79.79,0,0,1-.33-.39c2.61,1.39,5.27,2.66,7.92,4l-.21-.06s-1.44-.49-2.59-.94c1,.55,2,1.25,2,1.25.57.39.42.94-.34,1.25a3.37,3.37,0,0,1-1.1.23" transform="translate(-1 -19.7)"/><path class="cls-1" d="M48.32,67a46.82,46.82,0,0,0-13.51.36l-8.73.24L26.19,72c.08,2.74,7.08,4.76,15.63,4.53s15.43-2.63,15.35-5.36l-.12-4.46L48.32,67" transform="translate(-1 -19.7)"/><path class="cls-2" d="M57.06,67.16c.08,2.73-6.8,5.13-15.35,5.37S26.16,70.73,26.09,68s6.8-5.13,15.35-5.36S57,64.42,57.06,67.16" transform="translate(-1 -19.7)"/><path class="cls-3" d="M53.94,67.24c.06,2.18-5.43,4.1-12.26,4.29S29.27,70.1,29.21,67.91s5.43-4.1,12.26-4.29,12.41,1.44,12.47,3.62" transform="translate(-1 -19.7)"/><path class="cls-4" d="M47.82,67.79l-.59-.33c-.12-.07.09-.09.22-.16l.32-.18c.7-.38.72-.86.14-1.24a3,3,0,0,0-2.43-.12s-1.42.58-2.55,1.09c.92-.6,1.94-1.36,1.94-1.36.8-.56.12-1.53-1.62-1.39a2.91,2.91,0,0,0-1,.29l-.67.31c-.15.07-.17,0-.31-.11l-.34-.15a3.12,3.12,0,0,0-2.42,0c-.77.31-.92.86-.34,1.24,0,0,1.08.7,2,1.25-1.14-.44-2.58-.93-2.58-.93-1.09-.38-3,0-2.8.88,0,.14.17.32.52.5l.59.33c.12.07-.09.09-.22.16l-.32.18c-.7.38-.72.86-.14,1.23a3,3,0,0,0,2.43.13s1.42-.58,2.55-1.09c-.92.6-1.94,1.36-1.94,1.36-.8.57-.12,1.53,1.62,1.39a2.91,2.91,0,0,0,1-.29l.67-.31c.15-.06.18,0,.31.11l.34.15a3.12,3.12,0,0,0,2.42,0c.77-.31.92-.86.34-1.24,0,0-1.08-.7-2-1.25,1.15.44,2.59.93,2.59.93,1.09.38,3,0,2.8-.88,0-.14-.18-.32-.52-.5" transform="translate(-1 -19.7)"/><path class="cls-5" d="M54,69.84l-1.43-.73a2.52,2.52,0,0,0,1.36-1.75c1,.54,1.82,1,2.13,1.14A8.15,8.15,0,0,1,54,69.84M47.55,64a33.64,33.64,0,0,0-5-.36h-.84l-1.07-.5L40.39,63l.54,0c1,0,1.87-.06,2.69-.06a21.49,21.49,0,0,1,2.21.11l1.72.93" transform="translate(-1 -19.7)"/><path class="cls-6" d="M52.58,69.11c-1.13-.58-2.27-1.21-3.34-1.77l-1.05-.54c.25-.31.15-.64-.28-.92a2.53,2.53,0,0,0-1.32-.32,3.47,3.47,0,0,0-.64.06l-.81-.41c.27-.51-.3-1.12-1.54-1.12h-.35l-.35.06-1.21-.54h.84a33.64,33.64,0,0,1,5,.36l6.39,3.39a2.52,2.52,0,0,1-1.36,1.75" transform="translate(-1 -19.7)"/><path class="cls-7" d="M48.19,66.8c-.74-.4-1.49-.79-2.24-1.18a3.47,3.47,0,0,1,.64-.06,2.53,2.53,0,0,1,1.32.32c.43.28.53.61.28.92m-3-1.59c-.57-.28-1.15-.56-1.73-.82l-.51-.23.35-.06h.35c1.24,0,1.81.61,1.54,1.12" transform="translate(-1 -19.7)"/><path class="cls-5" d="M45.31,71.88l-1-.52a31.06,31.06,0,0,0,4.33-.71l1.15.54a38.5,38.5,0,0,1-4.5.69M32.18,65.24,31,64.61a24.53,24.53,0,0,1,3.83-1l1.06.61a19.88,19.88,0,0,0-3.7,1" transform="translate(-1 -19.7)"/><path class="cls-6" d="M44.33,71.36c-.26-.13-.52-.26-.77-.4a3.13,3.13,0,0,0,1.09-.23c.77-.31.92-.86.34-1.24,0,0-1.08-.7-2-1.25,1.15.44,2.59.93,2.59.93l.21.07.19.08c.94.47,1.82.89,2.72,1.33a31.06,31.06,0,0,1-4.33.71m-4.91-2.52-.2-.1,1-.44-.8.54m.77-1.93c-1.14-.44-2.58-.93-2.58-.93a3,3,0,0,0-1-.15c-.81,0-1.64.26-1.81.72l-.07,0-2.58-1.28a19.88,19.88,0,0,1,3.7-1c.65.37,1.3.73,1.95,1.07a.74.74,0,0,0,.33.39s1.08.7,2,1.25" transform="translate(-1 -19.7)"/><path class="cls-7" d="M43.56,71l-4.14-2.12.8-.54-1,.44c-1.44-.73-2.89-1.46-4.39-2.19.17-.46,1-.72,1.81-.72a3,3,0,0,1,1,.15s1.44.49,2.58.93c-.95-.55-2-1.25-2-1.25a.74.74,0,0,1-.33-.39c2.61,1.39,5.28,2.66,7.92,4l-.21-.07s-1.44-.49-2.59-.93c1,.55,2,1.25,2,1.25.58.38.43.93-.34,1.24a3.13,3.13,0,0,1-1.09.23" transform="translate(-1 -19.7)"/><path class="cls-1" d="M67.19,39.24a44.31,44.31,0,0,0-5.87,3.39A45.58,45.58,0,0,0,56,46.84l-7.22,4.92,2.5,3.68c1.54,2.26,8.52.19,15.6-4.62S78.46,40.27,76.92,38l-2.51-3.68-7.22,4.91" transform="translate(-1 -19.7)"/><path class="cls-2" d="M74.65,34.67c1.53,2.26-3,8-10,12.81S50.56,54.36,49,52.1s2.95-8,10-12.81,14.06-6.88,15.6-4.62" transform="translate(-1 -19.7)"/><path class="cls-3" d="M72.06,36.42c1.23,1.81-2.35,6.39-8,10.23s-11.23,5.5-12.46,3.69S54,44,59.61,40.11s11.23-5.49,12.45-3.69" transform="translate(-1 -19.7)"/><path class="cls-4" d="M67.2,40.19l-.66,0c-.14,0,0-.12.09-.25l.17-.33c.39-.69.14-1.11-.54-1.11a2.93,2.93,0,0,0-2.12,1.21S63.25,41,62.58,42c.45-1,.91-2.19.91-2.19.36-.91-.73-1.36-2.12-.29a2.73,2.73,0,0,0-.7.78l-.39.62a.19.19,0,0,1-.2.09H60l-.37,0a3.14,3.14,0,0,0-2.05,1.29c-.48.68-.31,1.23.39,1.23,0,0,1.28,0,2.39,0-1.21.25-2.69.61-2.69.61-1.12.27-2.53,1.63-1.88,2.25a.89.89,0,0,0,.71.14l.67,0c.14,0,0,.13-.09.26l-.18.32c-.38.7-.14,1.11.55,1.12A3,3,0,0,0,59.52,47s.89-1.26,1.57-2.29c-.45,1-.91,2.18-.91,2.18-.36.91.73,1.36,2.11.3a3,3,0,0,0,.7-.78l.4-.63c.06-.09.12-.08.2-.08h.12l.37,0a3.19,3.19,0,0,0,2-1.28c.48-.68.3-1.23-.39-1.24,0,0-1.29,0-2.39,0,1.21-.24,2.68-.6,2.68-.6,1.13-.27,2.54-1.63,1.88-2.25a.9.9,0,0,0-.71-.15" transform="translate(-1 -19.7)"/><path class="cls-1" d="M21.23,47.35a45.19,45.19,0,0,0-6.35,2.37A44.37,44.37,0,0,0,8.94,53L1,56.63l1.85,4c1.14,2.48,8.37,1.61,16.15-2s13.17-8.48,12-11l-1.85-4-7.94,3.64" transform="translate(-1 -19.7)"/><path class="cls-2" d="M29.34,44.09c1.14,2.48-4.24,7.39-12,11s-15,4.44-16.15,2,4.25-7.4,12-11,15-4.45,16.15-2" transform="translate(-1 -19.7)"/><path class="cls-3" d="M26.5,45.39c.91,2-3.39,5.9-9.59,8.75S4.92,57.69,4,55.7,7.4,49.8,13.61,47s12-3.55,12.89-1.56" transform="translate(-1 -19.7)"/><path class="cls-4" d="M21.08,48.29l-.66-.07c-.14,0,0-.12.14-.24l.22-.29c.49-.61.32-1.06-.36-1.18a2.93,2.93,0,0,0-2.28.84s-1.08,1.09-1.92,2c.61-.92,1.26-2,1.26-2,.5-.84-.5-1.46-2-.65a3.22,3.22,0,0,0-.83.66l-.48.55c-.12.12-.18,0-.33,0h-.37a3.07,3.07,0,0,0-2.24.93c-.58.58-.51,1.15.17,1.27,0,0,1.27.23,2.36.36-1.22,0-2.74.15-2.74.15-1.15.08-2.77,1.18-2.22,1.91.08.12.28.23.67.26l.66.07c.15,0,0,.12-.13.24l-.23.29c-.49.61-.32,1.07.36,1.19a3,3,0,0,0,2.29-.85s1.08-1.08,1.92-2c-.61.91-1.26,2-1.26,2-.51.84.49,1.46,2,.65a2.87,2.87,0,0,0,.81-.66l.5-.55c.11-.12.17,0,.33,0h.37a3.13,3.13,0,0,0,2.24-.92c.58-.59.5-1.16-.18-1.28,0,0-1.27-.22-2.37-.36,1.23,0,2.75-.15,2.75-.15,1.15-.08,2.77-1.18,2.23-1.91a1,1,0,0,0-.68-.26" transform="translate(-1 -19.7)"/><path class="cls-5" d="M22.19,52l-.77-.31C22,51.32,22.5,51,23,50.59l1.27,0A23,23,0,0,1,22.19,52" transform="translate(-1 -19.7)"/><path class="cls-6" d="M21.42,51.68c-.94-.39-1.94-.77-3-1.15.63,0,1.1-.07,1.1-.07a1.66,1.66,0,0,0,.22,0l.21,0,3,.14c-.48.36-1,.73-1.56,1.09" transform="translate(-1 -19.7)"/><path class="cls-7" d="M18.43,50.53l-.56-.19,1.88.09a1.66,1.66,0,0,1-.22,0s-.47,0-1.1.07" transform="translate(-1 -19.7)"/></svg>