<svg id="Layer_1" data-name="Layer 1" xmlns="http://www.w3.org/2000/svg" xmlns:xlink="http://www.w3.org/1999/xlink" viewBox="0 0 52.08 79.08"><defs><style>.cls-1{fill:none;}.cls-2{fill:#64b45d;}.cls-3{fill:#225d1d;}.cls-4{clip-path:url(#clip-path);}.cls-5{fill:#e59711;}.cls-6{clip-path:url(#clip-path-2);}.cls-7{fill:#f8d5b9;}.cls-8{clip-path:url(#clip-path-3);}</style><clipPath id="clip-path" transform="translate(-20.92 -7.7)"><rect id="SVGID" class="cls-1" x="20.33" y="7.67" width="50.84" height="79.52"/></clipPath><clipPath id="clip-path-2" transform="translate(-20.92 -7.7)"><rect id="SVGID-2" data-name="SVGID" class="cls-1" x="22.21" y="24.85" width="50.79" height="34.26"/></clipPath><clipPath id="clip-path-3" transform="translate(-20.92 -7.7)"><rect id="SVGID-3" data-name="SVGID" class="cls-1" x="41.75" y="41.59" width="13.21" height="10.95"/></clipPath></defs><title>leprechaun</title><path class="cls-2" d="M66.48,62.39c-1.07-2.57-4.69-5.14-7.13-6.64a5,5,0,0,0-2-.66c-1.16-.1-2.41.77-4,.83h-1.3c-.5,0-1,0-1.45,0h0a4,4,0,0,0-1.71.34c-.12.06-.24.14-.37.22h0a16,16,0,0,0-1.27,1.13,16.16,16.16,0,0,1-1.66,1.46c-1.41,1-2.92,1.5-4.15,2.49s-2.5,2.07-2.87,2.39c-.91,2.7-1.86,6-1.77,7.89.11,2.52,2.66,4.87,4.06,6a1.12,1.12,0,0,0,1.54-.14A33.57,33.57,0,0,1,47,79.75c.35.28.42,1.15.48,1.86.07.86.12,1.55.61,1.67a.39.39,0,0,0,.15,0c.53,0,.84-.73,1.2-1.57a9.93,9.93,0,0,1,.75-1.54c.79-1.27,0-1.85-1.32-2.72-.32-.22-.68-.47-1.07-.77A24.62,24.62,0,0,1,45,74.25a1.11,1.11,0,0,0,0-.82,7,7,0,0,1-.59-2.91c.08-.67.95-1.64,2.48-3,.77-.67,1-.7,1.83-1.33a30.43,30.43,0,0,1,2.65-2,18.32,18.32,0,0,1,5.15-.33,8,8,0,0,1,3,1,1.48,1.48,0,0,1,.9,1.34,2.1,2.1,0,0,0,.09.42A13.09,13.09,0,0,1,59,71.22c-1.47,2.45-.8,3.29-.63,3.45.39.47,2.1,2.46,3.24,2.46A.78.78,0,0,0,62,77c.54-.27.72-.36.77-.58s-.07-.33-.2-.49a4.6,4.6,0,0,1-.3-.44,5,5,0,0,0-.37-.5c-.33-.39-.47-.56.19-1.56,1-1.47,3.13-4.61,3.16-4.64h0a2.25,2.25,0,0,0,1-1A6.47,6.47,0,0,0,66.48,62.39Zm-17,16.15c.57.48.63.79.26,1.38A10.89,10.89,0,0,0,49,81.54c-.24.55-.56,1.31-.77,1.26S48,81.93,48,81.57a5.29,5.29,0,0,0-.34-1.8Zm-2.93-2.17c.29.24.6.48.93.73l.53.39L46.79,79c-.38-.2-.88-.44-1.43-.68Zm-1.85-1.69c.14.15.32.32.54.53l-1.89,2.32-.66-.26Zm17.07,1.11a4.83,4.83,0,0,0,.34.49l.06.07c-.09.06-.27.15-.46.25s-1.5-.42-3-2.26l0,0s-.51-.53.43-2.32a6.45,6.45,0,0,0,2.2,1.74,1.2,1.2,0,0,0,.16,1.62A3.35,3.35,0,0,1,61.79,75.79Zm.39-3.41-2.3-1.83c.17-.36.32-.73.45-1.09l2.42,2.08ZM64,69.7c-.59-.27-2.62-1.15-3.3-1.45.07-.31.14-.6.19-.87a2.36,2.36,0,0,0,.76.64l1.57.78a2.27,2.27,0,0,0,1.24.23ZM45.18,44.05a.24.24,0,0,0-.35,0,.25.25,0,0,0,0,.35,9,9,0,0,1,1.3,2.11,14.24,14.24,0,0,1,1.29,6,.25.25,0,0,0,.5,0A13.21,13.21,0,0,0,45.18,44.05Zm5.57.11a.24.24,0,0,0-.33.12,13.09,13.09,0,0,0-1.19,6.94.26.26,0,0,0,.25.22h0a.26.26,0,0,0,.21-.29,12.81,12.81,0,0,1,1.14-6.65A.26.26,0,0,0,50.75,44.16Z" transform="translate(-20.92 -7.7)"/><path class="cls-3" d="M64.46,69,64,69.7c-.59-.27-2.62-1.15-3.3-1.45.07-.31.14-.6.19-.87a2.36,2.36,0,0,0,.76.64l1.57.78A2.27,2.27,0,0,0,64.46,69Z" transform="translate(-20.92 -7.7)"/><path class="cls-3" d="M62.75,71.54l-.57.84-2.3-1.83c.17-.36.32-.73.45-1.09Z" transform="translate(-20.92 -7.7)"/><path class="cls-2" d="M62.19,76.35c-.09.06-.27.15-.46.25s-1.5-.42-3-2.26l0,0s-.51-.53.43-2.32a6.45,6.45,0,0,0,2.2,1.74,1.2,1.2,0,0,0,.16,1.62,3.35,3.35,0,0,1,.32.44,4.83,4.83,0,0,0,.34.49Z" transform="translate(-20.92 -7.7)"/><path class="cls-2" d="M49.76,79.92A10.89,10.89,0,0,0,49,81.54c-.24.55-.56,1.31-.77,1.26S48,81.93,48,81.57a5.29,5.29,0,0,0-.34-1.8l1.87-1.23C50.07,79,50.13,79.33,49.76,79.92Z" transform="translate(-20.92 -7.7)"/><path class="cls-3" d="M45.26,75.21l-1.89,2.32-.66-.26,2-2.59C44.86,74.83,45,75,45.26,75.21Z" transform="translate(-20.92 -7.7)"/><path class="cls-3" d="M48,77.49,46.79,79c-.38-.2-.88-.44-1.43-.68l1.21-2c.29.24.6.48.93.73Z" transform="translate(-20.92 -7.7)"/><g class="cls-4"><path class="cls-3" d="M50.75,44.16a.24.24,0,0,0-.33.12,13.09,13.09,0,0,0-1.19,6.94.26.26,0,0,0,.25.22h0a.26.26,0,0,0,.21-.29,12.81,12.81,0,0,1,1.14-6.65A.26.26,0,0,0,50.75,44.16ZM47.9,52.52a13.21,13.21,0,0,0-2.72-8.47.24.24,0,0,0-.35,0,.25.25,0,0,0,0,.35,9.27,9.27,0,0,1,1.3,2.11,14.24,14.24,0,0,1,1.29,6,.25.25,0,0,0,.5,0Zm22.67-3.71-2.85,1.43a1,1,0,0,1-1.21-.3c-.91-1.29-3-4-4.34-4.64-1.82-.83-5.14-.17-5.47,1s2.48,7,2.65,9.45a5,5,0,0,0-2-.66c-1.16-.1-2.41.77-4,.83s-3.42-.21-4.48.33C48,56.7,47,58,45.58,59.07s-2.92,1.5-4.15,2.49c-1.56,1.25-3,2.49-3,2.49S37.61,58.74,37,53.93s-.33-6.64-.83-7.63-5.47-3-7.13-1.66c-1.35,1.07-2.47,4.55-2.85,5.82a1,1,0,0,1-.62.64l-3,1a1,1,0,0,1-1.25-.74c-.55-3.11-1.47-12,5.2-14,8.13-2.49,17.09,0,17.09,0l11.78-.5s6-.5,9.79,1.33c3.1,1.48,5.22,7.35,5.9,9.5A1,1,0,0,1,70.57,48.81Zm-20.5,29.6-1.54,2.94A1.26,1.26,0,0,0,47,80.93c-.93.49-2.41,1.74-2.57,2.78a3,3,0,0,0,2,3c1.42.44,2.77-2.63,3.13-3.53s.27-1.39.76-1.47.66-1.12.91-1.66S50.62,77.65,50.07,78.41ZM57.69,75c.33.49.66,1.49,1.16,1.49s.5.5,1,1.33,2.32,3.65,3.65,3A3,3,0,0,0,65,77.48c-.33-1-2-2-3-2.32a1.27,1.27,0,0,0-1.49.66l-2-2.65C57.86,72.51,57.36,74.5,57.69,75ZM30.48,35.51c-.16-.33,1.16-1.49,2.66-2.32S35,31.69,35,30.53s-1.82-4.48-3.15-6-5-6-4.81-7.47,3.48-2.48,5.47-3.81,3.82-1.49,7.47-3.48S45.25,7,46.57,8.47,47.9,12,48.9,15.1s.49,3.49,1.49,6.47,3.32.17,6.31-.16,1,.83-3.16,3.32a98,98,0,0,1-8.63,4.64,71.81,71.81,0,0,0-6.63,3.49,47.47,47.47,0,0,1-6.47,2.82c-.83.16-1.16.16-1.33-.17" transform="translate(-20.92 -7.7)"/></g><path class="cls-5" d="M51.18,55.27,51,54.33a.48.48,0,0,0-.58-.36l-3.06.71a.5.5,0,0,0-.31.22.52.52,0,0,0,0,.37l.25,1a.5.5,0,0,0,.22.31.54.54,0,0,0,.37.05l3-.82A.48.48,0,0,0,51.18,55.27Zm1-.22a1.47,1.47,0,0,1-1,1.76l-3,.82a1.65,1.65,0,0,1-.38,0,1.48,1.48,0,0,1-.76-.21,1.45,1.45,0,0,1-.68-.92l-.25-1a1.49,1.49,0,0,1,1.1-1.79L50.15,53a1.49,1.49,0,0,1,1.78,1.1Zm-2.42-28,1.32-.17C50.39,25.22,49.73,27.05,49.73,27.05Zm4.6,16a1.08,1.08,0,0,1-1.29.44,9.08,9.08,0,0,0-3.48-.17c-4,.33-7.13,0-10.62-3.65C36.24,36.83,37,33,37.52,31.42a1.84,1.84,0,0,1,.87-1.05l7.23-3.86s.43.39,1.28,1.06a2.25,2.25,0,0,1,1.66,0l-.81.66a58.82,58.82,0,0,0,6.54,4.11c4.57,2.48,1.47,8.43,0,10.72Z" transform="translate(-20.92 -7.7)"/><g class="cls-6"><path class="cls-7" d="M39.37,33.61a1,1,0,0,1,1.87.07,10.75,10.75,0,0,0,1.35,2.66c.67.66-1.82,1.83-3-.33A2.66,2.66,0,0,1,39.37,33.61ZM70.09,49A5,5,0,0,0,71,51.44c.83,1.16,2.33,1.49,2,2.82s-2.32,2.49-3,1.66-1.5-.5-1.83-1.33.33-1.33.17-2.49a5.71,5.71,0,0,0-.58-1.87ZM25.46,51.06a4.34,4.34,0,0,0,.21,1.87c.33.66.83.17,1.66,1.33s0,1.66,0,1.66a2.17,2.17,0,0,1-1,2.65c-1.66,1-3.48.5-3.81-1.33s.74-2.73-.21-5ZM45.91,29.71s-.17-3,2.65-2.16ZM54.37,32c.17-.83,1.16-1.83.5-2.49s-2.32-.17-3.32-.83A2.59,2.59,0,0,1,50.44,27l-.71.09a2,2,0,0,1,.51-.79s0,0,0,0a3.49,3.49,0,0,0-.24-.58,1.16,1.16,0,0,0-1.58-.52L42.76,28s-.83,2.82,1.16,6.64,8,3.49,9.79,1,.5-2.82.66-3.65" transform="translate(-20.92 -7.7)"/></g><g class="cls-8"><path class="cls-2" d="M41.72,43.41a6.65,6.65,0,0,0,.52,2.25.19.19,0,0,1,0-.08c.25.46.87.84,2,.72.74-.08,1.45-.24,2.31-.36-1.15,1.55-1.85,5.8-1.85,5.8l1.84-.92.9,1.73a26.44,26.44,0,0,0,.6-3,15.67,15.67,0,0,0,.21-3.68A3.1,3.1,0,0,0,49,46,13.08,13.08,0,0,1,50.76,52L52,50.39l1.52.92s-.21-3.66-2.8-5.45a17.35,17.35,0,0,0,3.09.32,1.15,1.15,0,0,0,1-.93h0a5.43,5.43,0,0,0-.17-3c-.45-1-1.73-.54-3.29.38a6.71,6.71,0,0,1-1.35.62.3.3,0,0,0-.12-.16,5.16,5.16,0,0,0-2-.06.89.89,0,0,0-.31.23.73.73,0,0,1,0,.08l-.32-.14c-1-.54-2-1.52-3.75-1.61s-1.93.78-1.79,1.81" transform="translate(-20.92 -7.7)"/></g></svg>