<svg id="Layer_1" data-name="Layer 1" xmlns="http://www.w3.org/2000/svg" xmlns:xlink="http://www.w3.org/1999/xlink" viewBox="0 0 78.96 89.81"><defs><style>.cls-1{fill:none;}.cls-2{fill:#f2a787;}.cls-3{fill:#55c157;}.cls-4{fill:#4aa74b;}.cls-5{fill:#183c18;}.cls-6{fill:#f0a80f;}.cls-7{fill:#56b435;}.cls-8{fill:#4c9e2e;}.cls-9{fill:#82ce38;}.cls-10{fill:#3a6c2c;}.cls-11{fill:#f9a783;}.cls-12{fill:#dd9474;}.cls-13{fill:#2a662e;}.cls-14{fill:#1e4b20;}.cls-15{fill:#133012;}.cls-16{clip-path:url(#clip-path);}.cls-17{fill:#704232;}.cls-18{fill:#57261f;}.cls-19{clip-path:url(#clip-path-2);}.cls-20{fill:#318427;}.cls-21{fill:#45bb3a;}.cls-22{fill:#3ba031;}.cls-23{fill:#0c692a;}.cls-24{fill:#10933e;}.cls-25{fill:#13330a;}.cls-26{fill:#fabb30;}.cls-27{fill:#fff;}.cls-28{fill:#fffa94;}.cls-29{fill:#9cd41f;}.cls-30{fill:#2a672e;}.cls-31{fill:#204f22;}.cls-32{clip-path:url(#clip-path-4);}.cls-33{clip-path:url(#clip-path-5);}.cls-34{fill:#579a4f;}.cls-35{fill:#508d48;}.cls-36{fill:#518e48;}.cls-37{fill:#5e2923;}.cls-38{fill:#73332c;}.cls-39{fill:#451d17;}.cls-40{fill:#f89a31;}.cls-41{fill:#47a048;}.cls-42{fill:#3f8d3f;}.cls-43{fill:#347533;}.cls-44{fill:#295d28;}.cls-45{fill:#459b45;}.cls-46{fill:#f25932;}.cls-47{fill:#f7967f;}.cls-48{fill:#391f18;}.cls-49{fill:#d53b1f;}.cls-50{fill:#f04f4c;}.cls-51{fill:#4e211b;}.cls-52{fill:#f79332;}.cls-53{fill:#e4532e;}.cls-54{fill:#e57069;}.cls-55{fill:#d46861;}</style><clipPath id="clip-path" transform="translate(-10.52 -5.07)"><rect id="SVGID" class="cls-1" x="62.59" y="92.72" width="2.45" height="2.21"/></clipPath><clipPath id="clip-path-2" transform="translate(-10.52 -5.07)"><rect id="SVGID-2" data-name="SVGID" class="cls-1" x="61.61" y="87.33" width="9.8" height="7.6"/></clipPath><clipPath id="clip-path-4" transform="translate(-10.52 -5.07)"><rect id="SVGID-4" data-name="SVGID" class="cls-1" x="55.23" y="92.72" width="2.45" height="2.21"/></clipPath><clipPath id="clip-path-5" transform="translate(-10.52 -5.07)"><rect id="SVGID-5" data-name="SVGID" class="cls-1" x="48.86" y="87.33" width="10.29" height="7.6"/></clipPath></defs><title>lpclover</title><path class="cls-2" d="M82.16,38.48c.59,1.28.17,2.48-1.52,4.18-6.92,6.42-13.8,9.6-15.45,8.74-2.7-1.4,1-4.26,1-4.26s.24,1,9.35-5.12a35.32,35.32,0,0,0,5.17-3.88c.4-.39.91-.73,1.41.34" transform="translate(-10.52 -5.07)"/><path class="cls-2" d="M86.92,30.48s-.84-1,.7-2.6c0,0,.29.13,0,.95a10.49,10.49,0,0,1-.54,1.38,1.16,1.16,0,0,1-.17.27" transform="translate(-10.52 -5.07)"/><path class="cls-2" d="M88,31a5.5,5.5,0,0,0,1.33-1.71,1.49,1.49,0,0,0-.1-1.69c-.14-.17-.61-.68-.73-.31S87.29,29,87.07,29.41A1.82,1.82,0,0,0,87,30.6a8.64,8.64,0,0,0,1,.4" transform="translate(-10.52 -5.07)"/><path class="cls-2" d="M80.64,42.66c-.78,0-2,.06-2.47-1-.37-.92.31-1.06,1.92-2.83h0A46.61,46.61,0,0,0,88,29c1.8-3.14.23,1.38.23,1.38a32.81,32.81,0,0,1-7.58,12.29" transform="translate(-10.52 -5.07)"/><path class="cls-3" d="M65.19,51.4c1.65.86,6.44.18,13.36-6.24,0,0,7.39-6.14,9.47-13l-1.87-1a52.08,52.08,0,0,1-5.32,6.22,28.18,28.18,0,0,1-6.4,5c-8.07,4.32-9.21,5.15-9.15,5.11S62.49,50,65.19,51.4" transform="translate(-10.52 -5.07)"/><path class="cls-4" d="M64.46,50.87c1.73-.72,3.53-1.3,5.19-2.19a20.52,20.52,0,0,0,4.83-3.61,25.14,25.14,0,0,0,4.25-5.69,24.87,24.87,0,0,1-4.3,3c-8.07,4.32-9.21,5.15-9.15,5.11s-2.17,1.92-.82,3.33" transform="translate(-10.52 -5.07)"/><path class="cls-5" d="M84.82,33.22a11.1,11.1,0,0,1,2.56,1.67,27.24,27.24,0,0,0,1.05-2.72L85.9,30.78c-.46.67-1.15,1.53-1.65,2.18l.57.26" transform="translate(-10.52 -5.07)"/><path class="cls-6" d="M87,33.77a.23.23,0,1,1,.07.32.23.23,0,0,1-.07-.32" transform="translate(-10.52 -5.07)"/><path class="cls-6" d="M87.4,33a.23.23,0,0,1,.32-.07.24.24,0,0,1-.25.4A.24.24,0,0,1,87.4,33" transform="translate(-10.52 -5.07)"/><path class="cls-2" d="M27.07,55.22A6.31,6.31,0,0,1,24.86,54a1.72,1.72,0,0,1-.7-1.85c.08-.25.33-1,.63-.67s2.06,1.31,2.47,1.6a2.09,2.09,0,0,1,.68,1.21,10.66,10.66,0,0,1-.87.89" transform="translate(-10.52 -5.07)"/><path class="cls-3" d="M29,53.13c.26,0,1.1,1.66,1.46,1.94,3.1,2.41,6.15,3,10.26,2.14a11.42,11.42,0,0,0,7-4.7c1.11-1.53,1.79-3.43,3.2-4.73.53-.49,1.72-1.36,2.51-1.11,1.07.32.78,2,.69,2.84-.83,8.26-7.37,13.11-15.18,12.63-4.48-.27-8.86-3.71-12-6.92-.08-.08.63-1,.78-1.19.48-.48.86-.88,1.34-.9" transform="translate(-10.52 -5.07)"/><path class="cls-5" d="M31.07,54.83c-.39.47-.76,1-1.12,1.45s-.81,1.14-1.2,1.71A27.74,27.74,0,0,1,26,55.78a29.44,29.44,0,0,1,2.93-3c.41.36.82.72,1.25,1.07l.21.17h0l.75.54.07,0a1.54,1.54,0,0,0-.17.19" transform="translate(-10.52 -5.07)"/><path class="cls-7" d="M12,33.94l1.42-1.27c.3-.29-.13-.4-.38-.73l-.59-.8a3.84,3.84,0,0,1,.34-5.22,3.73,3.73,0,0,1,5.28-.08h0s2.75,2.69,4.9,5c-1.66-2.69-3.46-6-3.46-6-1.4-2.54.55-6.48,4.2-5.55a3.9,3.9,0,0,1,2,1.38l1.27,1.42c.28.3.39-.14.73-.38l.8-.59a3.81,3.81,0,0,1,5.21.34,3.75,3.75,0,0,1,.07,5.29s-2.68,2.75-5,4.91c2.68-1.66,6-3.47,6-3.47,2.54-1.41,6.46.55,5.54,4.21a4,4,0,0,1-1.38,2l-1.42,1.27c-.3.29.14.39.38.73l.59.8a3.84,3.84,0,0,1-.34,5.22,3.74,3.74,0,0,1-5.28.08h0s-5.32-5-7.43-7.52c-.85,1.21,2,35.05,4,45l-1,.64s-5.07-38.42-3.63-45.86c-2.48,1.81-8.69,5.36-8.69,5.36-2.53,1.41-6.46-.55-5.54-4.21a4,4,0,0,1,1.38-2" transform="translate(-10.52 -5.07)"/><path class="cls-8" d="M27.56,24.29a13.08,13.08,0,0,1-.65,3c-.44,1.73-1.1,3.37-1.69,5.05a5.72,5.72,0,0,1-.45-2.56c0-.93,0-1.86,0-2.79,0-1.45.2-4.7,2.07-5A.28.28,0,0,0,27,22h0a8.64,8.64,0,0,1,.6,2.31" transform="translate(-10.52 -5.07)"/><path class="cls-8" d="M22.17,33.74c1.74-.27,4-.1,4.44,1.81a.2.2,0,0,0,0,.16l0,.46c-.4-.42-.76-.82-1.06-1.17-.85,1.21,2,35.05,4,45l-1,.64s-5.07-38.42-3.63-45.86c-2.48,1.81-8.69,5.36-8.69,5.36-2.53,1.41-6.46-.55-5.54-4.21a4,4,0,0,1,1.38-2l.87-.77a3.31,3.31,0,0,0-.61,1.54c0,2.37,2.74,2.92,4.35,1.64.33-.27.61-.59.94-.85a10.41,10.41,0,0,1,4.58-1.76" transform="translate(-10.52 -5.07)"/><path class="cls-8" d="M24.76,39.3c-.05-.3-.09-.6-.13-.9a21,21,0,0,1,.25-3.54,1.81,1.81,0,0,1,2-1.39,4.69,4.69,0,0,1,1.89,1.15c.58.48,1.12,1,1.65,1.55a17.65,17.65,0,0,0,2.7,2.33c1.3.87,3.4,2.17,4.83.8a2.92,2.92,0,0,0,.81-1.89,3.82,3.82,0,0,1-.47,5,3.74,3.74,0,0,1-5.28.08s-5.32-5-7.43-7.52c-.85,1.21,2,35.05,4,45l-1,.64s-3.75-28.4-3.89-41.1a.26.26,0,0,0,.13-.28" transform="translate(-10.52 -5.07)"/><path class="cls-9" d="M33,22.82a4.36,4.36,0,0,0-1.94-.46c-.58,0-2.54.86-2.9.39-.48-.63.7-1.33,1.14-1.53,1.29-.58,3.33-.58,4.32.59.14.15.54.76.44,1-.28.68-.73.17-1.06,0" transform="translate(-10.52 -5.07)"/><path class="cls-9" d="M25.1,22.47c-.64,0-1.53-.76-2.11-1a5.8,5.8,0,0,0-2.23-.35c.09-.71,1-1.3,1.65-1.4a.31.31,0,0,0,.18-.09,3.06,3.06,0,0,1,2.19.91,3.55,3.55,0,0,1,.58.9,1.72,1.72,0,0,1,.22.61c0,.37-.22.42-.48.43" transform="translate(-10.52 -5.07)"/><path class="cls-9" d="M37.29,33.34c0-.64.76-1.53,1-2.11A5.68,5.68,0,0,0,38.64,29c.71.09,1.3,1,1.41,1.65a.3.3,0,0,0,.08.18,3.14,3.14,0,0,1-.9,2.2,4.07,4.07,0,0,1-.9.58,1.53,1.53,0,0,1-.61.21c-.37,0-.42-.22-.43-.47" transform="translate(-10.52 -5.07)"/><path class="cls-9" d="M16.18,26.54c-.34.54-1.49.84-2,1.18a5.74,5.74,0,0,0-1.53,1.65,2.08,2.08,0,0,1-.24-2.15.29.29,0,0,0,0-.2,3.13,3.13,0,0,1,2-1.31,3.77,3.77,0,0,1,1.06,0,1.63,1.63,0,0,1,.63.16.41.41,0,0,1,.09.64" transform="translate(-10.52 -5.07)"/><path class="cls-10" d="M13,31.14l.22.29a3.39,3.39,0,0,1,.55.65.43.43,0,0,1,0,.25.17.17,0,0,1-.18.14.23.23,0,0,1-.16-.1,8.27,8.27,0,0,1-1-1.23,3.87,3.87,0,0,1-.84-2.83A3.12,3.12,0,0,0,12.29,30c.23.37.47.78.72,1.14" transform="translate(-10.52 -5.07)"/><path class="cls-10" d="M23,30.87c-.44-.48-.91-1.83-1.37-2.31-1.15-2-2.09-3.73-2.09-3.73a3.83,3.83,0,0,1-.43-2.25,3.73,3.73,0,0,0,.43,1.4s2,3.48,3.46,6.89" transform="translate(-10.52 -5.07)"/><path class="cls-10" d="M16.57,40l-.37.21c-2.43,1.39-6.09-.56-5.65-3.53a1.43,1.43,0,0,0,.22.76c1,1.39,3,1.67,4.65,1.18a19.53,19.53,0,0,0,4.48-2.44c1.33-.82,3.18-1.75,4.79-1.33-1.3,1.42-3.47,2.4-5.11,3.38-1,.6-2,1.19-3,1.77" transform="translate(-10.52 -5.07)"/><path class="cls-10" d="M33.86,26.74s-1.17,1.2-2.64,2.64c-.78.45-1.6,1.79-2.37,2.27a51.64,51.64,0,0,0,5-5.76,3.67,3.67,0,0,0,1-2.19,3.7,3.7,0,0,1-1,3" transform="translate(-10.52 -5.07)"/><path class="cls-10" d="M28.52,79.83l.85-.55c.05.27.1.52.15.76l-1,.64s-4-30.16-3.89-42.21c.09,12.55,3.89,41.36,3.89,41.36" transform="translate(-10.52 -5.07)"/><path class="cls-10" d="M39,34.42l-.61.55c-.06.05-.93.85-1,.68a1.28,1.28,0,0,1,.3-.94A6.56,6.56,0,0,1,39,33.57a4,4,0,0,0,1.38-2,4.62,4.62,0,0,0,.11-.63,4.24,4.24,0,0,1-.11,1.48,4,4,0,0,1-1.38,2" transform="translate(-10.52 -5.07)"/><path class="cls-10" d="M25.62,35a.83.83,0,0,1,1.1-.86A2.6,2.6,0,0,1,28,35.27a46.05,46.05,0,0,0,4.13,4.91c1,1.1,2.2,2.28,3.7,2.28S39.65,41,39.43,39.2a4,4,0,0,1-1.18,3.24,3.74,3.74,0,0,1-5.28.08c-1.15-1.16-2.35-2.26-3.51-3.41-.91-.9-1.82-1.82-2.7-2.76-.3-.32-.93-.79-1.09-1.21a.75.75,0,0,1-.05-.16" transform="translate(-10.52 -5.07)"/><path class="cls-10" d="M27.07,23.41a18.74,18.74,0,0,0-1.53,8.24" transform="translate(-10.52 -5.07)"/><path class="cls-10" d="M27.93,33.18a19.77,19.77,0,0,1,8.53,2.14" transform="translate(-10.52 -5.07)"/><path class="cls-10" d="M22.69,33.18a13.42,13.42,0,0,0-7.86-.71" transform="translate(-10.52 -5.07)"/><path class="cls-10" d="M25.73,30a6.57,6.57,0,0,1,3.39-1.39" transform="translate(-10.52 -5.07)"/><path class="cls-10" d="M26.06,27.9s0,0-.06,0a.09.09,0,0,1,.05-.09,6.13,6.13,0,0,1,2.46-1.16" transform="translate(-10.52 -5.07)"/><path class="cls-10" d="M26.29,26a4.22,4.22,0,0,1,2.23-1.67" transform="translate(-10.52 -5.07)"/><path class="cls-10" d="M30.63,33.49a6.73,6.73,0,0,1,0,3.67" transform="translate(-10.52 -5.07)"/><path class="cls-10" d="M32.57,33.83s0-.08,0-.07,0,.05.06.09a6.24,6.24,0,0,1,.12,2.72" transform="translate(-10.52 -5.07)"/><path class="cls-10" d="M34.23,34.46a4.19,4.19,0,0,1,.67,2.7" transform="translate(-10.52 -5.07)"/><path class="cls-10" d="M36,31.3a6.6,6.6,0,0,0-1.16,3.47" transform="translate(-10.52 -5.07)"/><path class="cls-10" d="M34.2,31.47s0-.06,0-.06-.07,0-.08.06a6.12,6.12,0,0,0-1,2.53" transform="translate(-10.52 -5.07)"/><path class="cls-10" d="M32.64,31.3a4.22,4.22,0,0,0-1.51,2.34" transform="translate(-10.52 -5.07)"/><path class="cls-10" d="M20.38,32.56a6.64,6.64,0,0,0,0,3.67" transform="translate(-10.52 -5.07)"/><path class="cls-10" d="M18.6,32.62s0-.07,0-.06,0,0-.06.08a6.29,6.29,0,0,0-.12,2.73" transform="translate(-10.52 -5.07)"/><path class="cls-10" d="M17.15,32.39a4.16,4.16,0,0,0-.67,2.7" transform="translate(-10.52 -5.07)"/><path class="cls-10" d="M16.61,29a6.52,6.52,0,0,1,.22,3.66" transform="translate(-10.52 -5.07)"/><path class="cls-10" d="M18.27,29.67s0-.07,0-.06.05,0,.07.07a6.24,6.24,0,0,1,.3,2.71" transform="translate(-10.52 -5.07)"/><path class="cls-10" d="M19.82,29.91a4.15,4.15,0,0,1,.86,2.65" transform="translate(-10.52 -5.07)"/><path class="cls-10" d="M25.94,29.71a6.61,6.61,0,0,0-3.39-1.39" transform="translate(-10.52 -5.07)"/><path class="cls-10" d="M26.29,27.49s.05,0,.06,0,0-.07-.05-.1a6.27,6.27,0,0,0-2.46-1.16" transform="translate(-10.52 -5.07)"/><path class="cls-10" d="M26.71,25.4a4.12,4.12,0,0,0-2.23-1.66" transform="translate(-10.52 -5.07)"/><path class="cls-2" d="M27.92,54.18a3.35,3.35,0,0,0-2.36-2.94A1.4,1.4,0,0,0,26,52.59,13.81,13.81,0,0,0,27.61,54a1.2,1.2,0,0,0,.31.2" transform="translate(-10.52 -5.07)"/><path class="cls-11" d="M56.71,49.56h6.45V43.83H56.71v5.73" transform="translate(-10.52 -5.07)"/><path class="cls-12" d="M59,46a6,6,0,0,0-2.27,1.81v-4h6.45V45.3A17.36,17.36,0,0,0,59,46" transform="translate(-10.52 -5.07)"/><path class="cls-13" d="M47.44,8.22h0c0-.85,2.16-2,5-2.71s5.25-.57,5.67.16h0L68.72,21.44,46.85,26.2l.59-18" transform="translate(-10.52 -5.07)"/><path class="cls-14" d="M47.44,8.22h0c0-.85,2.16-2,5-2.71l.15,0a5.33,5.33,0,0,0-1.45,1.81,18.47,18.47,0,0,0-1.42,4.47c-.81,4.69,1.7,9.82,6.83,10.16a17.36,17.36,0,0,0,7.36-1.3A13.86,13.86,0,0,0,67.06,19l1.66,2.48L46.85,26.2l.59-18" transform="translate(-10.52 -5.07)"/><path class="cls-5" d="M40.68,28.08c1.17,7.31,10.7,7.94,19,6.25S74.25,27.08,74.16,22c-.13-7.12-9-9.14-17.13-3.08C50.21,24,39.59,21.23,40.68,28.08" transform="translate(-10.52 -5.07)"/><path class="cls-15" d="M48.26,25c2-2,4.41-2.26,6.91-3.07a32.68,32.68,0,0,1,8.92-2.06c3.69-.13,9.6,1.75,8.44,6.53-.33,1.36-1.81,2.54-2.87,3.4a23,23,0,0,1-9.95,4.53c-4.41.9-9.16,1.14-12.82.09-1.07-.31-1-3.56-.93-4.33A8.28,8.28,0,0,1,48.26,25" transform="translate(-10.52 -5.07)"/><g class="cls-16"><path class="cls-17" d="M62.7,93a8.62,8.62,0,0,1,.51,1.56c.08.33.2.28.53.29a7.85,7.85,0,0,0,.84,0c.2,0,.26-.18.27-.37,0-.37,0-.75,0-1.12a.32.32,0,0,0,0-.17.27.27,0,0,0-.17-.1,4.25,4.25,0,0,0-1.74-.18.34.34,0,0,0-.14.05L62.7,93" transform="translate(-10.52 -5.07)"/><path class="cls-18" d="M64.42,94.78h.15c.15,0,.22-.08.25-.26V93.35a6.15,6.15,0,0,0-1.73-.29,1,1,0,0,1-.29-.08l0,0c.1.22.18.46.26.69l.14.06c.3.09.62,0,.92.15a.68.68,0,0,1,.37.57,1.37,1.37,0,0,1,0,.35" transform="translate(-10.52 -5.07)"/></g><g class="cls-19"><path class="cls-20" d="M63,87.57a11.84,11.84,0,0,1,1.32.26A4,4,0,0,0,67,87.37l-.54,1.28A4.37,4.37,0,0,0,66,90.48c0,1.23,1.87,1.86,2.88,1.61a2,2,0,0,0,1.39-1.93.27.27,0,0,1,.26,0,.76.76,0,0,1,.17.22,2.83,2.83,0,0,1-.57,3.75,3.34,3.34,0,0,1-2.32.7,4.14,4.14,0,0,1-1.45-.37,5.59,5.59,0,0,1-1.2-.91,3.84,3.84,0,0,0-2.08-.52,1,1,0,0,1-.29-.08.75.75,0,0,1-.37-.51,2.65,2.65,0,0,1,.31-1.63,3,3,0,0,0,.13-1.27,2.58,2.58,0,0,0-.28-1.12,1.15,1.15,0,0,0-.93-.62A2.78,2.78,0,0,1,63,87.57" transform="translate(-10.52 -5.07)"/></g><path class="cls-21" d="M66,90.48a4.37,4.37,0,0,1,.48-1.83l.46-1.08-.33.17,0,0a1.69,1.69,0,0,0-.67.82,3.72,3.72,0,0,0-.32,1.14,2.24,2.24,0,0,0,.48,1.9,3,3,0,0,0,1.45.84,2.05,2.05,0,0,0,1.64-.27,1.56,1.56,0,0,0,.72-.84h0a1.81,1.81,0,0,1-1,.74c-1,.25-2.84-.38-2.88-1.61" transform="translate(-10.52 -5.07)"/><path class="cls-21" d="M67,87.45h0l0-.08h0l-.12.1.06,0" transform="translate(-10.52 -5.07)"/><g class="cls-19"><path class="cls-22" d="M68.09,94.88a3.5,3.5,0,0,0,2.12-.7,2.62,2.62,0,0,0,.94-2.42,2.67,2.67,0,0,1-1,2.4,3.34,3.34,0,0,1-2.06.71h0m-5.22-4.95c0-.12,0-.24,0-.36a2.58,2.58,0,0,0-.28-1.12,1.15,1.15,0,0,0-.93-.62,1.15,1.15,0,0,1,.93.62,2.58,2.58,0,0,1,.28,1.12c0,.12,0,.24,0,.36m2.17-2a4.08,4.08,0,0,0,2-.5,4.08,4.08,0,0,1-2,.5m-.68-.06h0m-2.71,0h0m0,0h0m0,0h0m0,0h0m0,0h0m0,0a2.62,2.62,0,0,1,1.16-.24,2.62,2.62,0,0,0-1.16.24M63,87.57h0m3.93,0h0c0-.05,0-.11.07-.17l0,.08,0,.09m0-.15,0,0,0,0" transform="translate(-10.52 -5.07)"/><path class="cls-23" d="M68.07,94.87a3.34,3.34,0,0,0,2.06-.71,2.67,2.67,0,0,0,1-2.4l0-.17a4,4,0,0,1-.92,1.93,2.06,2.06,0,0,1-1.52.79h-.06a3.49,3.49,0,0,1-1.88-.88,4,4,0,0,0-1-.59,3.73,3.73,0,0,0-1.24-.23,1.33,1.33,0,0,1-.85-.22.73.73,0,0,1-.16-.65,5.29,5.29,0,0,0,.15-1.12,3.55,3.55,0,0,0-.24-1,1.17,1.17,0,0,1-.1-.69.22.22,0,0,1,.22-.17.93.93,0,0,1,.22,0,2,2,0,0,0,.42.09h.06a4.07,4.07,0,0,0,.61-.06,4.31,4.31,0,0,0,.87-.24l.36-.17a1.37,1.37,0,0,1,.55-.59l0,0,.32-.17,0,0,0-.09h0l-.06,0,.12-.1h0l0,0a4.08,4.08,0,0,1-2,.5h0a3.79,3.79,0,0,1-.67-.06h0A11.84,11.84,0,0,0,63,87.57h-.17a2.62,2.62,0,0,0-1.16.24h0a1.15,1.15,0,0,1,.93.62,2.58,2.58,0,0,1,.28,1.12c0,.12,0,.24,0,.36a2.55,2.55,0,0,1-.14.91,3.67,3.67,0,0,0-.36,1.27,1.49,1.49,0,0,0,.05.36.83.83,0,0,0,.33.49l0,0a1,1,0,0,0,.29.08,6.15,6.15,0,0,1,1.73.29.05.05,0,0,0,0,0,1.88,1.88,0,0,1,.31.21,5.59,5.59,0,0,0,1.2.91,4.14,4.14,0,0,0,1.45.37h.26" transform="translate(-10.52 -5.07)"/></g><path class="cls-24" d="M66,88.36a2.35,2.35,0,0,0,.89-.79l-.32.17,0,0a1.37,1.37,0,0,0-.55.59" transform="translate(-10.52 -5.07)"/><path class="cls-24" d="M66.9,87.47l.06,0h0l0-.08h0l-.12.1" transform="translate(-10.52 -5.07)"/><path class="cls-21" d="M62.43,88.1l.58.13c.42.1.79.3,1.2.43a2.1,2.1,0,0,0,1.14,0,3.9,3.9,0,0,0,.88-.41,2.22,2.22,0,0,0,.72-.71c0-.05,0-.11.07-.17a4,4,0,0,1-2.68.46A11.84,11.84,0,0,0,63,87.57a2.29,2.29,0,0,0-1.36.26.29.29,0,0,1,.33,0,1.25,1.25,0,0,0,.43.22h0" transform="translate(-10.52 -5.07)"/><path class="cls-25" d="M61.73,87.78s1.51.27,2.53.56a2.72,2.72,0,0,0,2.76-1c-.15.2-.64.3-.85.36a4.6,4.6,0,0,1-2.36,0,4.08,4.08,0,0,0-.92-.13,2.75,2.75,0,0,0-.57.05c-.15,0-.46.19-.59.16" transform="translate(-10.52 -5.07)"/><path class="cls-17" d="M62.85,90.29h0a4,4,0,0,0,1.51.35A3.22,3.22,0,0,0,66,90.35h.06l0,0a3.07,3.07,0,0,1,.31.72.27.27,0,0,1,0,.12.28.28,0,0,1-.16.22,2.45,2.45,0,0,1-1.21.37,4.47,4.47,0,0,1-1.88-.29.79.79,0,0,1-.49-.36c0-.12,0-.82.17-.86" transform="translate(-10.52 -5.07)"/><path class="cls-26" d="M65,90.88a.25.25,0,0,0-.24-.25h-.69a.25.25,0,0,0-.24.25v.56a.25.25,0,0,0,.24.26h.69a.25.25,0,0,0,.24-.26Zm.47-.09v.74a.58.58,0,0,1-.58.58h-1a.58.58,0,0,1-.58-.58v-.74a.58.58,0,0,1,.58-.58h1a.58.58,0,0,1,.58.58" transform="translate(-10.52 -5.07)"/><path class="cls-27" d="M65.34,90.55l.21.12-.21.11-.11.21-.12-.21-.21-.11.21-.12.12-.21.11.21" transform="translate(-10.52 -5.07)"/><path class="cls-27" d="M65,90.18l.15.08-.15.08-.08.15-.08-.15-.15-.08.15-.08L64.9,90l.08.15" transform="translate(-10.52 -5.07)"/><path class="cls-27" d="M65.55,89.9l.18.09-.18.1-.09.17-.1-.17-.17-.1.17-.09.1-.18.09.18" transform="translate(-10.52 -5.07)"/><path class="cls-27" d="M63.86,90.44a.66.66,0,0,0,.14,0h.56l0,0a1.07,1.07,0,0,0-.43-.06.53.53,0,0,0-.33,0l0,0,0,0,.07,0" transform="translate(-10.52 -5.07)"/><path class="cls-28" d="M64.42,88.32a3.47,3.47,0,0,0,.91.08V74.14h-2V88.06a9.91,9.91,0,0,1,1.07.26" transform="translate(-10.52 -5.07)"/><path class="cls-29" d="M63.35,87.07v1a9.91,9.91,0,0,1,1.07.26,3.47,3.47,0,0,0,.91.08V87.07h-2" transform="translate(-10.52 -5.07)"/><path class="cls-29" d="M65.33,83.66h-2v1.76h2V83.66" transform="translate(-10.52 -5.07)"/><path class="cls-29" d="M65.33,80.07h-2v1.75h2V80.07" transform="translate(-10.52 -5.07)"/><path class="cls-29" d="M65.33,76.47h-2v1.76h2V76.47" transform="translate(-10.52 -5.07)"/><path class="cls-29" d="M65.33,72.87h-2v1.76h2V72.87" transform="translate(-10.52 -5.07)"/><path class="cls-30" d="M63.28,81.82c-2.21-1.89-3.22-6-3.22-9.86,0-1,9.88-.84,9.94,0,.13,1.93-1.15,6.24-3.9,9l-2.82.79" transform="translate(-10.52 -5.07)"/><path class="cls-31" d="M61.17,75.65a25.25,25.25,0,0,0,1.29,3.46,14.27,14.27,0,0,0,1.59,2.5l-.77.21c-2.14-1.83-3.17-5.77-3.22-9.52a28,28,0,0,1,1.11,3.35" transform="translate(-10.52 -5.07)"/><path class="cls-5" d="M66.1,81a5.64,5.64,0,0,1-.22,1.5H62.77a5.54,5.54,0,0,1-.24-1.5H66.1" transform="translate(-10.52 -5.07)"/><g class="cls-32"><path class="cls-17" d="M57.64,93a8.62,8.62,0,0,0-.51,1.56c-.08.33-.2.28-.53.29a7.85,7.85,0,0,1-.84,0c-.2,0-.26-.18-.27-.37,0-.37,0-.75,0-1.12a.21.21,0,0,1,.18-.27,4.31,4.31,0,0,1,1.75-.18.34.34,0,0,1,.14.05l.08.06" transform="translate(-10.52 -5.07)"/><path class="cls-18" d="M55.92,94.78a2.07,2.07,0,0,1,0-.35.69.69,0,0,1,.38-.57c.29-.16.61-.06.92-.15l.14-.06c.08-.23.16-.47.26-.69l0,0a1,1,0,0,1-.29.08,6.09,6.09,0,0,0-1.73.29v1.16c0,.18.1.25.25.26h.15" transform="translate(-10.52 -5.07)"/></g><g class="cls-33"><path class="cls-20" d="M57.32,87.57a11.84,11.84,0,0,0-1.32.26,4,4,0,0,1-2.68-.46l.54,1.28a4.37,4.37,0,0,1,.48,1.83c0,1.23-1.87,1.86-2.88,1.61a2,2,0,0,1-1.39-1.93.27.27,0,0,0-.26,0,.76.76,0,0,0-.17.22,2.83,2.83,0,0,0,.57,3.75,3.33,3.33,0,0,0,2.31.7A4.14,4.14,0,0,0,54,94.49a5.59,5.59,0,0,0,1.2-.91,3.81,3.81,0,0,1,2.08-.52,1,1,0,0,0,.29-.08.75.75,0,0,0,.37-.51,2.65,2.65,0,0,0-.31-1.63,3,3,0,0,1-.13-1.27,2.44,2.44,0,0,1,.28-1.12,1.15,1.15,0,0,1,.92-.62,2.74,2.74,0,0,0-1.36-.26" transform="translate(-10.52 -5.07)"/></g><path class="cls-21" d="M54.34,90.48a4.37,4.37,0,0,0-.48-1.83l-.46-1.08.33.17,0,0a1.62,1.62,0,0,1,.66.82,3.74,3.74,0,0,1,.33,1.14,2.24,2.24,0,0,1-.48,1.9,3,3,0,0,1-1.46.84,2,2,0,0,1-1.63-.27,1.56,1.56,0,0,1-.72-.84h0a1.81,1.81,0,0,0,1,.74c1,.25,2.84-.38,2.88-1.61" transform="translate(-10.52 -5.07)"/><path class="cls-21" d="M53.38,87.45h0l0-.08h0l.11.1,0,0" transform="translate(-10.52 -5.07)"/><g class="cls-33"><path class="cls-22" d="M52.25,94.88h0a3.34,3.34,0,0,1-2.06-.71,2.65,2.65,0,0,1-1-2.39,2.62,2.62,0,0,0,.94,2.41,3.5,3.5,0,0,0,2.12.7m.27,0A4.14,4.14,0,0,0,54,94.49a5.59,5.59,0,0,0,1.2-.91,1.88,1.88,0,0,1,.31-.21,1.88,1.88,0,0,0-.31.21,5.59,5.59,0,0,1-1.2.91,4.14,4.14,0,0,1-1.46.37m5.09-1.92a.8.8,0,0,0,.31-.47,2.66,2.66,0,0,0-.29-1.59,2.66,2.66,0,0,1,.29,1.59.8.8,0,0,1-.31.47m0-2.16a3.07,3.07,0,0,1-.11-1.21,2.58,2.58,0,0,1,.28-1.12,1.15,1.15,0,0,1,.92-.62,1.15,1.15,0,0,0-.92.62,2.44,2.44,0,0,0-.28,1.12,3.07,3.07,0,0,0,.11,1.21M55.3,87.89a4.08,4.08,0,0,1-2-.5,4.08,4.08,0,0,0,2,.5m.68-.06h0m2.7,0h0m0,0h0m0,0h0m0,0h0m0,0a2.52,2.52,0,0,0-1.15-.24,2.52,2.52,0,0,1,1.15.24m-1.33-.24h0m-3.93,0,0-.09s0,0,0,0l0,.12h0m0-.15,0,0,0,0" transform="translate(-10.52 -5.07)"/><path class="cls-23" d="M52.27,94.87h.25A4.14,4.14,0,0,0,54,94.49a5.59,5.59,0,0,0,1.2-.91,1.88,1.88,0,0,1,.31-.21.05.05,0,0,0,0,0,6.09,6.09,0,0,1,1.73-.29,1,1,0,0,0,.29-.08l0,0,0,0a.8.8,0,0,0,.31-.47,2.66,2.66,0,0,0-.29-1.59l0,0a.14.14,0,0,1,0-.06,3.07,3.07,0,0,1-.11-1.21,2.44,2.44,0,0,1,.28-1.12,1.15,1.15,0,0,1,.92-.62h0a2.52,2.52,0,0,0-1.15-.24h-.18a11.84,11.84,0,0,0-1.32.26h0a3.79,3.79,0,0,1-.67.06h0a4.08,4.08,0,0,1-2-.5h0l0,0h0l.11.1,0,0h0l0,.09,0,0,.32.17,0,0a1.29,1.29,0,0,1,.54.59l.37.17a4.4,4.4,0,0,0,.86.24,4.34,4.34,0,0,0,.61.06h.07a2,2,0,0,0,.42-.09.93.93,0,0,1,.22,0,.21.21,0,0,1,.21.17,1.09,1.09,0,0,1-.09.69,3.9,3.9,0,0,0-.24,1,5.29,5.29,0,0,0,.15,1.12.73.73,0,0,1-.16.65,1.36,1.36,0,0,1-.86.22,3.72,3.72,0,0,0-1.23.23,4,4,0,0,0-1,.59,3.49,3.49,0,0,1-1.88.88h-.06a2,2,0,0,1-1.52-.79,3.9,3.9,0,0,1-.92-1.93l0,.18a2.65,2.65,0,0,0,1,2.39,3.34,3.34,0,0,0,2.06.71" transform="translate(-10.52 -5.07)"/></g><path class="cls-24" d="M54.29,88.36a1.29,1.29,0,0,0-.54-.59l0,0-.32-.17a2.39,2.39,0,0,0,.88.79" transform="translate(-10.52 -5.07)"/><path class="cls-24" d="M53.43,87.47l-.11-.1h0a.08.08,0,0,0,0,0s0,0,0,0h0l0,0" transform="translate(-10.52 -5.07)"/><path class="cls-21" d="M57.91,88.1l-.59.13c-.41.1-.78.3-1.19.43a2.1,2.1,0,0,1-1.14,0,3.7,3.7,0,0,1-.88-.41,2,2,0,0,1-.72-.71c0-.05,0-.11-.07-.17a4,4,0,0,0,2.68.46,11.84,11.84,0,0,1,1.32-.26,2.29,2.29,0,0,1,1.36.26.29.29,0,0,0-.33,0,1.35,1.35,0,0,1-.43.22h0" transform="translate(-10.52 -5.07)"/><path class="cls-25" d="M58.61,87.78s-1.51.27-2.53.56a2.71,2.71,0,0,1-2.76-1c.14.2.63.3.85.36a4.6,4.6,0,0,0,2.36,0,4.08,4.08,0,0,1,.92-.13,2.75,2.75,0,0,1,.57.05c.15,0,.46.19.59.16" transform="translate(-10.52 -5.07)"/><path class="cls-17" d="M57.49,90.29h-.05a3.88,3.88,0,0,1-1.5.35,3.22,3.22,0,0,1-1.59-.29h-.07l0,0a3.07,3.07,0,0,0-.31.72.18.18,0,0,0,0,.12.28.28,0,0,0,.16.22,2.45,2.45,0,0,0,1.21.37,4.47,4.47,0,0,0,1.88-.29.77.77,0,0,0,.48-.36c.05-.12,0-.82-.16-.86" transform="translate(-10.52 -5.07)"/><path class="cls-26" d="M55.33,91.44a.26.26,0,0,0,.25.26h.69a.25.25,0,0,0,.24-.26v-.56a.25.25,0,0,0-.24-.25h-.69a.25.25,0,0,0-.25.25Zm.12-1.23h.95a.58.58,0,0,1,.58.58v.74a.58.58,0,0,1-.58.58h-.95a.58.58,0,0,1-.58-.58v-.74a.58.58,0,0,1,.58-.58" transform="translate(-10.52 -5.07)"/><path class="cls-27" d="M55,90.55l-.21.12.21.11.11.21.12-.21.21-.11-.21-.12-.12-.21-.11.21" transform="translate(-10.52 -5.07)"/><path class="cls-27" d="M55.36,90.18l-.15.08.15.08.08.15.08-.15.15-.08-.15-.08L55.44,90l-.08.15" transform="translate(-10.52 -5.07)"/><path class="cls-27" d="M54.79,89.9l-.18.09.18.1.09.17.1-.17.17-.1L55,89.9l-.1-.18-.09.18" transform="translate(-10.52 -5.07)"/><path class="cls-27" d="M56.48,90.44a.65.65,0,0,1-.14,0h-.56l0,0a1,1,0,0,1,.43-.06.53.53,0,0,1,.33,0l0,0-.05,0-.07,0" transform="translate(-10.52 -5.07)"/><path class="cls-28" d="M55.92,88.32a3.47,3.47,0,0,1-.91.08V74.14h2V88.06a9.91,9.91,0,0,0-1.07.26" transform="translate(-10.52 -5.07)"/><path class="cls-29" d="M57,87.07v1a9.91,9.91,0,0,0-1.07.26,3.47,3.47,0,0,1-.91.08V87.07h2" transform="translate(-10.52 -5.07)"/><path class="cls-29" d="M55,83.66h2v1.76H55V83.66" transform="translate(-10.52 -5.07)"/><path class="cls-29" d="M55,80.07h2v1.75H55V80.07" transform="translate(-10.52 -5.07)"/><path class="cls-29" d="M55,76.47h2v1.76H55V76.47" transform="translate(-10.52 -5.07)"/><path class="cls-29" d="M55,72.87h2v1.76H55V72.87" transform="translate(-10.52 -5.07)"/><path class="cls-30" d="M57.06,81.82c2.21-1.89,3.23-6,3.23-9.86,0-1-9.89-.84-9.95,0-.13,1.93,1.15,6.24,3.9,9l2.82.79" transform="translate(-10.52 -5.07)"/><path class="cls-31" d="M59.17,75.65a25.25,25.25,0,0,1-1.29,3.46,14.27,14.27,0,0,1-1.59,2.5l.77.21c2.14-1.83,3.16-5.77,3.22-9.52a28,28,0,0,0-1.11,3.35" transform="translate(-10.52 -5.07)"/><path class="cls-5" d="M54.24,81a5.64,5.64,0,0,0,.22,1.5h3.1a5.54,5.54,0,0,0,.25-1.5H54.24" transform="translate(-10.52 -5.07)"/><path class="cls-30" d="M65.69,69.72v4.54H54V69.72H65.69" transform="translate(-10.52 -5.07)"/><path class="cls-34" d="M50,60.85a53.52,53.52,0,0,1,4.14-11.8,8.4,8.4,0,0,1,2.62-2.65l2.94,2.17h.18L63.2,46.4c.42,0,1.71,1.32,1.84,1.8a64.8,64.8,0,0,1,4.39,12.65c1.52,6.77-.12,11.09-.54,11.34-.92.53-2.7.82-7.87.93-.27,0-.35-1.63-.81-1.63s-.83,1.63-1.12,1.63c-5.12-.11-7.66-.41-8.57-.93-.42-.25-2.06-4.57-.54-11.34" transform="translate(-10.52 -5.07)"/><path class="cls-35" d="M50,60.85c.07-.31.14-.61.22-.9a2.68,2.68,0,0,1-.07.27c-1.52,6.78.12,11.1.55,11.35.9.52,3.44.81,8.57.92.29,0,.66-1.63,1.12-1.63s.54,1.64.81,1.63c5.16-.1,6.95-.4,7.86-.92a3.25,3.25,0,0,0,.64-1.43,4.7,4.7,0,0,1-.79,2c-.92.53-2.7.82-7.87.93-.27,0-.35-1.63-.81-1.63s-.83,1.63-1.12,1.63c-5.12-.11-7.66-.41-8.57-.93-.42-.25-2.06-4.57-.54-11.34" transform="translate(-10.52 -5.07)"/><path class="cls-36" d="M60.2,61.64a39.18,39.18,0,0,1-.07-6.85A29.53,29.53,0,0,1,61.6,48.2h1.24a1,1,0,0,1,.93.81,31.82,31.82,0,0,1,5.66,11.84c1.52,6.77-.12,11.09-.54,11.34-.68.39-1.8.56-4.57.81A25.78,25.78,0,0,1,60.2,61.64" transform="translate(-10.52 -5.07)"/><path class="cls-37" d="M49.5,63.71A23.38,23.38,0,0,1,50,60.85c.06-.28.13-.55.2-.82,6.71,2.91,15.69,2.08,19.32,1.14A26.08,26.08,0,0,1,70,65.39C62.3,67.12,55.81,66.8,49.5,63.71" transform="translate(-10.52 -5.07)"/><path class="cls-38" d="M69.5,61.17h0l-.1.17-.08.12a2.8,2.8,0,0,1-.61.58c-3.69.8-11,1.33-17.1-.73-1-.34-1.3-.71-1.18-1.18,6.69,2.77,15.48,2,19.07,1" transform="translate(-10.52 -5.07)"/><path class="cls-39" d="M49.58,63.05C56.21,66,62.3,66.11,70,64.74c0,.22,0,.44,0,.65C62.3,67.12,55.81,66.8,49.5,63.71c0-.22,0-.44.08-.66" transform="translate(-10.52 -5.07)"/><path class="cls-26" d="M61.48,63.42a.69.69,0,0,0-.68-.69H58.92a.68.68,0,0,0-.68.69V65a.68.68,0,0,0,.68.68H60.8a.69.69,0,0,0,.68-.68Zm-.32,3.39h-2.6a1.6,1.6,0,0,1-1.6-1.6v-2a1.6,1.6,0,0,1,1.6-1.59h2.6a1.59,1.59,0,0,1,1.59,1.59v2a1.6,1.6,0,0,1-1.59,1.6" transform="translate(-10.52 -5.07)"/><path class="cls-40" d="M60.8,66.13H58.92a.68.68,0,0,1-.68-.68V65a.68.68,0,0,0,.68.68H60.8a.69.69,0,0,0,.68-.68v.47a.69.69,0,0,1-.68.68" transform="translate(-10.52 -5.07)"/><path class="cls-40" d="M61.16,62.06h-2.6a1.6,1.6,0,0,0-1.6,1.6v-.48a1.6,1.6,0,0,1,1.6-1.59h2.6a1.59,1.59,0,0,1,1.59,1.59v.48a1.6,1.6,0,0,0-1.59-1.6" transform="translate(-10.52 -5.07)"/><path class="cls-27" d="M61.38,62.21a2.54,2.54,0,0,1-.39,0l-1,0a3.54,3.54,0,0,1-.46,0s-.07,0-.08,0,0-.08.07-.1a3,3,0,0,1,1.18-.19,1.89,1.89,0,0,1,.91.11s.09,0,.09.1-.06.1-.11.12l-.21,0" transform="translate(-10.52 -5.07)"/><path class="cls-3" d="M63.68,47.74s.56-1.15.93-1.15c.91,0,4,.42,4.17.9,0,0,1.45,7.79,3,14.57a88.33,88.33,0,0,1,1.56,12.72c0,.36-2.17.58-2.45.62a4.61,4.61,0,0,1-2.43-.29c-2.46-1-3.7-7.91-4.07-9.48a52.75,52.75,0,0,1-1.35-11,24.61,24.61,0,0,1,.67-6.91" transform="translate(-10.52 -5.07)"/><path class="cls-41" d="M68.78,47.49s.17.95.47,2.47A7.28,7.28,0,0,1,68,52.88c-1,1.44-2.79,2.84-2.7,4.75a5.81,5.81,0,0,0,.84,2.25,5.12,5.12,0,0,1,.53,3.24,9.18,9.18,0,0,1-1.92,4.19c-.17-.74-.29-1.34-.37-1.68a52.75,52.75,0,0,1-1.35-11,24.61,24.61,0,0,1,.67-6.91s.56-1.15.93-1.15c.91,0,4,.42,4.17.9" transform="translate(-10.52 -5.07)"/><path class="cls-41" d="M65.93,63.54c0,.08.08.16.06.25a15.36,15.36,0,0,0,.84,6.85c.77,2.59,2.32,3.94,5,3.78a11.74,11.74,0,0,0,1.45-.19.46.46,0,0,1-.07.65,1.35,1.35,0,0,1-.68.26c-.46.09-.92.18-1.38.24a5.28,5.28,0,0,1-2.24-.11c-2-.58-2.74-3-3.31-4.77-.51-1.6-.84-3.24-1.22-4.87-.16-.67-.31-1.37-.44-2.09h2" transform="translate(-10.52 -5.07)"/><path class="cls-5" d="M68.35,49.69a6.09,6.09,0,0,1-.57,1.06c-1.11,1.64-2.44,3.18-3,5.1a9.61,9.61,0,0,0-.42,2.6c0,1.62.86,3.09,1.48,4.59a1.5,1.5,0,0,1,.17.75,1.58,1.58,0,0,1-.18.5,9.58,9.58,0,0,1-1.27,2.17s-1.25-4.29-1.32-4.68a30.5,30.5,0,0,1-.54-5.22c0-1.54-.16-3.06-.1-4.6s.24-3.75,1.38-5c.89-.94,2.7-.61,3.78-.21,1.27.46,1.08,1.79.61,2.89" transform="translate(-10.52 -5.07)"/><path class="cls-42" d="M71.3,65.6a.61.61,0,0,0-.26-.09,3.61,3.61,0,0,0-2.14.54c-1.15.73-.75,2.38-.53,3.5a6,6,0,0,0,.29,1.11A1.93,1.93,0,0,0,71,71.82c.78-.15,1.24-.51,1.08-1.66-.23-1.79-.25-2-.37-3.6,0-.37,0-.77-.36-1" transform="translate(-10.52 -5.07)"/><path class="cls-43" d="M68.9,66.05a4.06,4.06,0,0,1,.59-.29,3.54,3.54,0,0,0-.91,1.64,5,5,0,0,0,.3,2.31,1.68,1.68,0,0,0,1.32,1.18c.38,0,.69-.22,1-.31.17,0,.67-.13.8,0s-.06.51-.13.64a1.32,1.32,0,0,1-1,.56,1.93,1.93,0,0,1-2.29-1.16,6,6,0,0,1-.29-1.11c-.22-1.12-.62-2.77.53-3.5" transform="translate(-10.52 -5.07)"/><path class="cls-44" d="M69.88,67.88a4.74,4.74,0,0,1-1.76,0,2,2,0,0,1,.78-1.85A3.61,3.61,0,0,1,71,65.51a.61.61,0,0,1,.26.09c.31.19.33.59.36,1s0,.58.07.86a5.53,5.53,0,0,1-1.85.46" transform="translate(-10.52 -5.07)"/><path class="cls-6" d="M70.07,68a.45.45,0,0,0,.9,0,.45.45,0,1,0-.9,0" transform="translate(-10.52 -5.07)"/><path class="cls-45" d="M70.41,68.65a.45.45,0,0,0-.2,0,.15.15,0,0,0-.13.13c0,.09.07.16.15.2a1.1,1.1,0,0,0,.62.1.32.32,0,0,1,.14,0,.39.39,0,0,1,.11.06c.21.17.2.37.31.58a.22.22,0,0,0,.22.12c.19,0,.08-1,.07-1.15,0-.41-.22-.24-.48-.14a1.87,1.87,0,0,1-.81.11" transform="translate(-10.52 -5.07)"/><path class="cls-3" d="M56.4,47.49s-.56-1.14-.93-1.14c-.91,0-4,.41-4.16.89,0,0-1.46,7.79-3,14.57a89.77,89.77,0,0,0-1.56,12.72c0,.36,2.17.58,2.46.62a4.49,4.49,0,0,0,2.42-.28c2.47-1,3.7-7.92,4.08-9.49a54.13,54.13,0,0,0,1.35-11,25,25,0,0,0-.68-6.91" transform="translate(-10.52 -5.07)"/><path class="cls-41" d="M51.31,47.24l-.47,2.48a7.16,7.16,0,0,0,1.27,2.91c1,1.44,2.78,2.84,2.69,4.75A5.73,5.73,0,0,1,54,59.63a5.14,5.14,0,0,0-.54,3.24,9.25,9.25,0,0,0,1.93,4.19c.16-.74.29-1.33.37-1.68a54.13,54.13,0,0,0,1.35-11,25,25,0,0,0-.68-6.91s-.56-1.14-.93-1.14c-.91,0-4,.41-4.16.89" transform="translate(-10.52 -5.07)"/><path class="cls-41" d="M54.15,63.3a.71.71,0,0,0-.06.24,15.33,15.33,0,0,1-.83,6.85c-.77,2.59-2.32,4-5,3.78A11.74,11.74,0,0,1,46.82,74a.48.48,0,0,0,.08.65,1.33,1.33,0,0,0,.67.27c.46.09.92.18,1.39.23A5.46,5.46,0,0,0,51.2,75c2-.58,2.74-3,3.3-4.78.51-1.6.84-3.24,1.23-4.87.16-.67.3-1.37.44-2.08h-2" transform="translate(-10.52 -5.07)"/><path class="cls-5" d="M51.73,49.44a6.08,6.08,0,0,0,.58,1.06c1.1,1.65,2.43,3.18,3,5.11a9.48,9.48,0,0,1,.41,2.6c0,1.61-.86,3.08-1.48,4.58a1.53,1.53,0,0,0-.17.75,1.5,1.5,0,0,0,.18.5,9.16,9.16,0,0,0,1.27,2.17s1.25-4.29,1.33-4.68a32.65,32.65,0,0,0,.54-5.22c0-1.54.16-3.06.09-4.6s-.24-3.75-1.37-5c-.9-.94-2.7-.61-3.79-.21-1.27.46-1.08,1.8-.61,2.89" transform="translate(-10.52 -5.07)"/><path class="cls-42" d="M48.78,65.35a.88.88,0,0,1,.26-.09,3.67,3.67,0,0,1,2.14.54c1.15.74.75,2.38.53,3.5a5.84,5.84,0,0,1-.29,1.11,1.92,1.92,0,0,1-2.28,1.16c-.79-.15-1.24-.5-1.09-1.66.24-1.78.25-2,.37-3.59,0-.38.06-.78.36-1" transform="translate(-10.52 -5.07)"/><path class="cls-43" d="M51.18,65.8a3.91,3.91,0,0,0-.58-.29,3.67,3.67,0,0,1,.91,1.65,5.06,5.06,0,0,1-.3,2.31,1.69,1.69,0,0,1-1.33,1.17c-.37,0-.68-.22-1-.31-.17,0-.67-.13-.79,0s.05.5.13.63a1.3,1.3,0,0,0,1,.56,1.92,1.92,0,0,0,2.28-1.16,5.84,5.84,0,0,0,.29-1.11c.22-1.12.62-2.76-.53-3.5" transform="translate(-10.52 -5.07)"/><path class="cls-44" d="M50.2,67.63a5,5,0,0,0,1.76,0,2,2,0,0,0-.78-1.86A3.67,3.67,0,0,0,49,65.26a.88.88,0,0,0-.26.09c-.3.19-.33.59-.36,1l-.07.85a5.65,5.65,0,0,0,1.85.46" transform="translate(-10.52 -5.07)"/><path class="cls-6" d="M50,67.73a.45.45,0,0,1-.45.45.45.45,0,1,1,0-.9.45.45,0,0,1,.45.45" transform="translate(-10.52 -5.07)"/><path class="cls-45" d="M49.68,68.4a.61.61,0,0,1,.19,0,.19.19,0,0,1,.14.13c0,.09-.08.16-.16.2a1.07,1.07,0,0,1-.61.1.75.75,0,0,0-.15,0l-.1,0c-.21.18-.2.37-.32.58a.23.23,0,0,1-.22.13c-.19,0-.08-1-.07-1.16,0-.4.22-.23.49-.14a1.7,1.7,0,0,0,.81.11" transform="translate(-10.52 -5.07)"/><path class="cls-27" d="M57.32,62.52l-.58.31.58.32.31.58.32-.58.58-.32L58,62.52l-.32-.58-.31.58" transform="translate(-10.52 -5.07)"/><path class="cls-27" d="M58.3,61.5l-.41.22.41.23.23.41.22-.41.41-.23-.41-.22-.22-.41-.23.41" transform="translate(-10.52 -5.07)"/><path class="cls-27" d="M56.74,60.72l-.49.26.49.26.26.48.26-.48.48-.26-.48-.26L57,60.24l-.26.48" transform="translate(-10.52 -5.07)"/><path class="cls-11" d="M50.09,35.61c0-3.08.91-6.95,3-9.33s6.39-2.75,9.26-2.84a5,5,0,0,1,4.8,2.77,14.78,14.78,0,0,1,.45,3c.31,1.65,1.41,3,2,4.6a7.7,7.7,0,0,1-4.77,9.7,14.23,14.23,0,0,1-3.26.45,21,21,0,0,1-5.37-.2,7.66,7.66,0,0,1-4.59-2.63,9.12,9.12,0,0,1-1.52-5.51" transform="translate(-10.52 -5.07)"/><path class="cls-46" d="M50.94,30.26a3.06,3.06,0,0,1,.36.67,4.09,4.09,0,0,1-.22,1.17,11,11,0,0,0-.14,2.63,8.52,8.52,0,0,0,1.84,4.78c1.93,2.32,5.57,3.23,8.12,1.63a3,3,0,0,1,1-.52,3.46,3.46,0,0,1,1.93.47c3.58,1.4,5.57-2.2,6.21-5a7.37,7.37,0,0,1,.3,2.14c0,.84-.07,1.68-.11,2.52a3.12,3.12,0,0,1,0,1c-.1.18-.4.19-.46.3-.22.42-.29.93-.52,1.48a1,1,0,0,1-1,.68c-.18,0-.36-.1-.54-.12-.83-.06-1.11,1.23-1.91,1.45s-1.4-.56-2.14-.47-1.44,1.22-2.23,1c-.36-.13-.57-.52-.91-.7-1-.5-2.06,1.08-3.12.76-.57-.17-.88-.83-1.45-1-.88-.23-1.7.86-2.57.62-1.1-.31-1-2.31-2.1-2.52-.6-.11-1.28-.06-1.38-.84a3.26,3.26,0,0,1,.12-1.07A5.77,5.77,0,0,0,50,40.2a.65.65,0,0,0-.1-.41.27.27,0,0,0-.37-.09A18.32,18.32,0,0,1,50,35.16a26.32,26.32,0,0,1,.93-4.9" transform="translate(-10.52 -5.07)"/><path class="cls-11" d="M51.76,31.61a4.12,4.12,0,0,1-2.2-3.1c-.08-.57-2.13,1.31-2.12,4A3.7,3.7,0,0,0,48.07,35a1.63,1.63,0,0,0,2.29.25" transform="translate(-10.52 -5.07)"/><path class="cls-47" d="M48.38,33.56c-.77-1-.25-2.43.47-3.42a3.32,3.32,0,0,0,1.55,2.22A2.39,2.39,0,0,1,50,33.6c-.46.71-1.17.55-1.64,0" transform="translate(-10.52 -5.07)"/><path class="cls-48" d="M63.75,32.11c0,.66.32,1.2.71,1.2s.71-.54.71-1.2-.32-1.2-.71-1.2-.71.54-.71,1.2" transform="translate(-10.52 -5.07)"/><path class="cls-48" d="M56.65,32.11c0,.66.32,1.2.71,1.2s.71-.54.71-1.2-.32-1.2-.71-1.2-.71.54-.71,1.2" transform="translate(-10.52 -5.07)"/><path class="cls-49" d="M59.34,29.22l0-.06L59.21,29a.9.9,0,0,0-.16-.19.84.84,0,0,0-.22-.19,2.15,2.15,0,0,0-.34-.17,1.51,1.51,0,0,0-.38-.1l-.21,0h-.21l-.43.06c-.13,0-.27.1-.39.16a.77.77,0,0,0-.18.1l-.17.12a1.72,1.72,0,0,0-.27.27,2.51,2.51,0,0,0-.2.29,1.69,1.69,0,0,0-.12.28,1.2,1.2,0,0,0-.06.24,1.43,1.43,0,0,0,0,.16v.11l0,0h0L56,30.1a3.75,3.75,0,0,1,.35-.22l.24-.14.28-.14a2.68,2.68,0,0,1,.3-.12l.32-.1.33-.07c.11,0,.22,0,.32,0s.21,0,.31,0h.27l.23,0,.18,0,.16,0,0,0v0l0,0" transform="translate(-10.52 -5.07)"/><path class="cls-49" d="M66.69,30.15v-.06a1.49,1.49,0,0,0,0-.17c0-.06,0-.15-.06-.23a.9.9,0,0,0-.12-.27,2,2,0,0,0-.23-.3,1.87,1.87,0,0,0-.3-.26l-.18-.11a1.11,1.11,0,0,0-.19-.09l-.41-.13-.43,0a.75.75,0,0,0-.21,0l-.2,0a1.09,1.09,0,0,0-.36.12,2.14,2.14,0,0,0-.3.17,2.36,2.36,0,0,0-.23.2.9.9,0,0,0-.16.19c-.05.05-.07.1-.1.13l0,.06,0,0,0,.05h0l.16,0c.1,0,.24,0,.41-.05l.28,0c.09,0,.2,0,.3,0s.22,0,.33,0l.33.05.33.08a1.6,1.6,0,0,1,.31.1,1.18,1.18,0,0,1,.28.12l.24.12.2.12.16.1.13.09.06,0v-.07" transform="translate(-10.52 -5.07)"/><path class="cls-48" d="M64.46,37.27c0,1.78-.54,3-2.3,3.21a3.33,3.33,0,0,1-3.67-3.21h6" transform="translate(-10.52 -5.07)"/><path class="cls-50" d="M62.22,39.56a1.71,1.71,0,0,1,1.12.52,2.79,2.79,0,0,1-1.18.4A3.13,3.13,0,0,1,60,40a3.07,3.07,0,0,1,2.2-.41" transform="translate(-10.52 -5.07)"/><path class="cls-27" d="M58.74,38.42a3,3,0,0,1-.25-1.15h6a5.83,5.83,0,0,1-.11,1.15H58.74" transform="translate(-10.52 -5.07)"/><path class="cls-37" d="M52,13.42a46.55,46.55,0,0,1,5-1.26,39.58,39.58,0,0,1,5.21-.39l2,2.91A44.1,44.1,0,0,0,51.65,17a35.29,35.29,0,0,0-4.56,1.88v-3A14,14,0,0,1,52,13.42" transform="translate(-10.52 -5.07)"/><path class="cls-51" d="M49.35,14.43a2,2,0,0,0,1,1.79c1.3.76,2.79-.15,4.09-.59,2.78-.93,5.64-1.06,9.33-1.59l.43.64A44.1,44.1,0,0,0,51.65,17a35.29,35.29,0,0,0-4.56,1.88v-3a12.57,12.57,0,0,1,2.26-1.41" transform="translate(-10.52 -5.07)"/><path class="cls-26" d="M56.29,15a1,1,0,0,0,1.09.53l1.94-.46a.55.55,0,0,0,.4-.83l-.66-1.58A1.11,1.11,0,0,0,58,12.07l-2,.35a.6.6,0,0,0-.42.89ZM55,11.21l2.82-.4a2.68,2.68,0,0,1,2.51,1.39l.93,2.08a1.25,1.25,0,0,1-.92,1.89l-2.78.63A2.23,2.23,0,0,1,55,15.59l-1-2.25a1.44,1.44,0,0,1,1-2.13" transform="translate(-10.52 -5.07)"/><path class="cls-52" d="M59.79,14.57a.63.63,0,0,0-.07-.34l-.66-1.58A1.11,1.11,0,0,0,58,12.07l-2,.35a.5.5,0,0,0-.34.19.55.55,0,0,1,.47-.49l2-.35a1.12,1.12,0,0,1,1.08.58l.65,1.58a.53.53,0,0,1-.06.64" transform="translate(-10.52 -5.07)"/><path class="cls-52" d="M54.07,11.82A1.74,1.74,0,0,0,54.15,13l1,2.26a2.25,2.25,0,0,0,2.56,1.21l2.77-.63a1.52,1.52,0,0,0,.93-.61,1.36,1.36,0,0,1-1.06.9l-2.78.63A2.23,2.23,0,0,1,55,15.59l-1-2.25a1.67,1.67,0,0,1,0-1.52" transform="translate(-10.52 -5.07)"/><path class="cls-27" d="M57,16.23a2.9,2.9,0,0,1,.42-.12l1.13-.26a4.59,4.59,0,0,1,.51-.1s.09,0,.11,0,0,.09,0,.12a3.18,3.18,0,0,1-1.2.52,2.36,2.36,0,0,1-1.07.15.15.15,0,0,1-.14-.07s0-.12.06-.15a1.39,1.39,0,0,1,.21-.11" transform="translate(-10.52 -5.07)"/><path class="cls-27" d="M53.94,13.19l-.51.58.77.12.58.51.12-.76.51-.57-.76-.13-.59-.51-.12.76" transform="translate(-10.52 -5.07)"/><path class="cls-27" d="M54.63,11.69l-.36.41.54.08.42.37.08-.54.37-.41-.55-.09-.41-.36-.09.54" transform="translate(-10.52 -5.07)"/><path class="cls-27" d="M52.59,11.45l-.43.47.63.1.49.43.09-.63.43-.48-.63-.1-.48-.42-.1.63" transform="translate(-10.52 -5.07)"/><path class="cls-46" d="M64.06,34.25c1.21.25,1.91,1.57,3.15,1.74a6.93,6.93,0,0,0,3.1-.34,3.88,3.88,0,0,1-1.85,1,2.72,2.72,0,0,0,1.2-.13c-.34.12-.9.85-1.2,1.09a1.63,1.63,0,0,0,.72-.12,4.57,4.57,0,0,1-3,1.8,4.37,4.37,0,0,1-3.65-.69c-1.66-1.41-1.28-5,1.48-4.39" transform="translate(-10.52 -5.07)"/><path class="cls-46" d="M59.43,34.25c-1.21.25-1.91,1.57-3.14,1.74a5.72,5.72,0,0,1-1.6-.09,4,4,0,0,1-1.54-.47c.17.46.81.9,1.22,1.19a1.07,1.07,0,0,1-.8-.13A3.74,3.74,0,0,0,55.41,38a1.32,1.32,0,0,1-.85-.16,6.51,6.51,0,0,0,2.88,1.54,4,4,0,0,0,3.47-.72c1.66-1.41,1.28-5-1.48-4.39" transform="translate(-10.52 -5.07)"/><path class="cls-53" d="M62,35a3.6,3.6,0,0,0,3.61,4,5.18,5.18,0,0,0,3.57-1.46,6.29,6.29,0,0,1-3.11,1.83,4,4,0,0,1-3.47-.72A3,3,0,0,1,62,35" transform="translate(-10.52 -5.07)"/><path class="cls-53" d="M61.73,35.39a3.06,3.06,0,0,1-.82,3.25,4,4,0,0,1-3.47.72,5.53,5.53,0,0,1-.66-.2,5,5,0,0,0,4.95-3.77" transform="translate(-10.52 -5.07)"/><path class="cls-54" d="M62.58,33.39a7,7,0,0,1,1.16.8,1.23,1.23,0,0,1,.36,1c-.15.92-1.37,1.38-2.17,1.26a2.19,2.19,0,0,1-1.83-2,4.56,4.56,0,0,1,.5-2.89c.61-.74.85.45,1.06.82a3.19,3.19,0,0,0,.92,1" transform="translate(-10.52 -5.07)"/><path class="cls-55" d="M60.6,31.52c.2-.25.36-.28.5-.2a4.82,4.82,0,0,0-.57,2.2,1.8,1.8,0,0,0,.8,1.66,2.35,2.35,0,0,0,2.77,0c-.15.92-1.37,1.38-2.17,1.26a2.19,2.19,0,0,1-1.83-2,4.56,4.56,0,0,1,.5-2.89" transform="translate(-10.52 -5.07)"/><path class="cls-27" d="M62.79,34.6a.41.41,0,0,0,.41.41.42.42,0,0,0,.41-.41.41.41,0,0,0-.41-.41.41.41,0,0,0-.41.41" transform="translate(-10.52 -5.07)"/><path class="cls-46" d="M55.51,26.12a4.3,4.3,0,0,1-1.39-1.36,1.75,1.75,0,0,1-.31-1.26c.16-.81.86-.68,1.46-.87a8,8,0,0,1,4.13-.52,5.2,5.2,0,0,0,2.75.33,13.59,13.59,0,0,0,2.39-1.65A5.9,5.9,0,0,1,67.43,20a2.62,2.62,0,0,1,1.67.45A1.3,1.3,0,0,1,69.53,22a1.55,1.55,0,0,0-.24.46c-.06.42.49.65.91.69A8.24,8.24,0,0,0,72.91,23c.39-.09.86-.18,1.13.12s.12.8-.06,1.18c-.5,1.06-1.16,2.24-2.31,2.46a5.86,5.86,0,0,0-.84.12.7.7,0,0,0-.55.58,3.06,3.06,0,0,0,.17.59,1,1,0,0,1-.78,1,1.86,1.86,0,0,1-1.37-.36c-.41-.26-.76-.6-1.17-.86-1.53-1-3.22-.57-4.86-.27a9.81,9.81,0,0,1-5.5-.79,7.93,7.93,0,0,1-1.26-.66" transform="translate(-10.52 -5.07)"/><path class="cls-46" d="M54.53,27.87A10.4,10.4,0,0,1,53,29.93a6.61,6.61,0,0,0-1.44,2.15,4.76,4.76,0,0,1-1.68-4.4,6,6,0,0,1,2.64-4A1.44,1.44,0,0,1,54,23.44a1.59,1.59,0,0,1,.47.61,4.48,4.48,0,0,1,.05,3.82" transform="translate(-10.52 -5.07)"/></svg>