<svg id="transactions" xmlns="http://www.w3.org/2000/svg" width="60.641" height="62.024" viewBox="0 0 60.641 62.024">
  <path id="Tracé_13" data-name="Tracé 13" d="M58.882,42.438a7,7,0,0,0-8.519,10.938A25.926,25.926,0,0,1,15.1,54.737a8.955,8.955,0,0,1-1.567,1.287A27.921,27.921,0,0,0,51.961,54.6a7,7,0,0,0,6.921-12.163Z" transform="translate(-1.607 -0.977)" fill="#8e83aa"/>
  <path id="Tracé_14" data-name="Tracé 14" d="M38.994,7.884a7.009,7.009,0,1,0-.261,2A25.962,25.962,0,0,1,57.552,39.775a8.955,8.955,0,0,1,1.9.72A28,28,0,0,0,38.994,7.884Z" transform="translate(-1.607 -0.977)" fill="#8e83aa"/>
  <path id="Tracé_15" data-name="Tracé 15" d="M6.888,41.723a25.978,25.978,0,0,1,16.468-31.24,8.962,8.962,0,0,1-.332-2,27.972,27.972,0,0,0-18,34.012,7.006,7.006,0,1,0,1.861-.773Z" transform="translate(-1.607 -0.977)" fill="#8e83aa"/>
</svg>
